<?xml version="1.0" encoding="utf-8"?>
<!-- Generator: Adobe Illustrator 22.1.0, SVG Export Plug-In . SVG Version: 6.00 Build 0)  -->
<svg version="1.1" id="illustration" xmlns="http://www.w3.org/2000/svg" xmlns:xlink="http://www.w3.org/1999/xlink" x="0px"
	 y="0px" viewBox="0 0 846 754" style="enable-background:new 0 0 846 754;" xml:space="preserve">
<style type="text/css">
	.st0{opacity:0.1;fill:url(#SVGID_1_);enable-background:new    ;}
	.st1{opacity:0.4;fill:url(#SVGID_2_);enable-background:new    ;}
	.st2{opacity:0.3;fill:url(#SVGID_3_);enable-background:new    ;}
	.st3{fill:#F2C94C;}
	.st4{opacity:0.15;fill:#FFFFFF;enable-background:new    ;}
	.st5{opacity:0.3;fill:url(#SVGID_4_);enable-background:new    ;}
	.st6{fill:#F2994A;}
	.st7{opacity:0.2;fill:url(#SVGID_5_);enable-background:new    ;}
	.st8{opacity:0.2;fill:url(#SVGID_6_);enable-background:new    ;}
	.st9{opacity:0.2;fill:url(#SVGID_7_);enable-background:new    ;}
</style>
<linearGradient id="SVGID_1_" gradientUnits="userSpaceOnUse" x1="683.8735" y1="184.2347" x2="480.2635" y2="536.6833" gradientTransform="matrix(1 0 0 1 0 -36)">
	<stop  offset="0" style="stop-color:#FFFFFF"/>
	<stop  offset="1" style="stop-color:#FFFFFF;stop-opacity:0"/>
</linearGradient>
<path class="st0" d="M394.2,6.1l397.7,598.7L394.3,375.2L394.2,6.1z"/>
<linearGradient id="SVGID_2_" gradientUnits="userSpaceOnUse" x1="662.158" y1="190.582" x2="455.965" y2="547.2842" gradientTransform="matrix(1 0 0 1 0 -36)">
	<stop  offset="0" style="stop-color:#FFFFFF"/>
	<stop  offset="0.8963" style="stop-color:#FFFFFF;stop-opacity:0"/>
</linearGradient>
<path class="st1" d="M773.9,646.6c4.1,2.4,5.9-2.5,2.7-7.3L356,6.2c-2.8-4.3-7-4.4-7-0.2l0.1,390.2c0,2.8,1.9,6.1,4.3,7.5
	L773.9,646.6z M411.3,186.4c0-4.2,4.2-4.1,7,0.2l184.4,277.2c3.2,4.8,1.4,9.7-2.7,7.3L415.7,364.6c-2.4-1.4-4.3-4.7-4.3-7.5
	L411.3,186.4z"/>
<linearGradient id="SVGID_3_" gradientUnits="userSpaceOnUse" x1="675.6619" y1="60.2615" x2="713.9357" y2="372.2848" gradientTransform="matrix(1 0 0 1 0 -36)">
	<stop  offset="0" style="stop-color:#FFFFFF"/>
	<stop  offset="1" style="stop-color:#FFFFFF;stop-opacity:0"/>
</linearGradient>
<path class="st2" d="M547.7,19.2l297.6,171.9v155.1L574,189.4l-26.2,8.6L547.7,19.2z"/>
<path class="st3" d="M608.1,106.1c0,12.8-7.6,18.8-16.9,13.4c-9.3-5.4-16.9-20.1-16.9-32.9s7.6-18.8,16.9-13.4
	C600.6,78.6,608.1,93.3,608.1,106.1z"/>
<path class="st4" d="M624.2,101.1l65.2,37.7v13.6l-65.2-37.7V101.1z"/>
<path class="st4" d="M624.2,128.4l194.7,112.5v13.6L624.2,142V128.4z"/>
<path class="st4" d="M624.2,155.7l152.3,88v13.6l-152.3-88V155.7z"/>
<linearGradient id="SVGID_4_" gradientUnits="userSpaceOnUse" x1="232.9364" y1="375.2404" x2="79.2764" y2="495.4934" gradientTransform="matrix(1 0 0 1 0 -36)">
	<stop  offset="0" style="stop-color:#FFFFFF"/>
	<stop  offset="1" style="stop-color:#FFFFFF;stop-opacity:0"/>
</linearGradient>
<path class="st5" d="M297.8,401.4L0.3,229.5v155.1l271.3,156.7l26.3,38.9L297.8,401.4z"/>
<path class="st6" d="M237.4,418.4c0,12.8,7.6,27.5,16.9,32.9s16.9-0.6,16.9-13.4s-7.6-27.5-16.9-32.9
	C245,399.7,237.4,405.7,237.4,418.4z"/>
<path class="st4" d="M221.3,395l-65.2-37.7v13.6l65.2,37.7V395z"/>
<path class="st4" d="M221.4,422.2L26.6,309.7v13.6l194.7,112.5L221.4,422.2z"/>
<path class="st4" d="M221.4,449.5l-152.3-88v13.6l152.3,88V449.5z"/>
<linearGradient id="SVGID_5_" gradientUnits="userSpaceOnUse" x1="312.5118" y1="105.9116" x2="205.0678" y2="291.8984" gradientTransform="matrix(1 0 0 1 0 -36)">
	<stop  offset="0" style="stop-color:#FFFFFF"/>
	<stop  offset="1" style="stop-color:#FFFFFF;stop-opacity:0"/>
</linearGradient>
<path class="st7" d="M192,0.3l124.3,71.8l0.1,269.3L192,269.6V0.3z"/>
<path class="st6" d="M153.1,74.2l97.8,56.5V163l-97.8-56.5V74.2z"/>
<path class="st4" d="M192,229.6l124.3,71.8v39.9L192,269.5V229.6z"/>
<path class="st4" d="M207.3,49.2l51,29.4v13.6l-51-29.4L207.3,49.2z"/>
<path class="st4" d="M207.4,76.5l90.2,52.1v13.6l-90.2-52.1L207.4,76.5z"/>
<path class="st4" d="M260.3,225.5v13.6l-52.9-30.6v-13.6L260.3,225.5z"/>
<linearGradient id="SVGID_6_" gradientUnits="userSpaceOnUse" x1="450.8122" y1="518.0118" x2="343.3672" y2="703.9988" gradientTransform="matrix(1 0 0 1 0 -36)">
	<stop  offset="0" style="stop-color:#FFFFFF"/>
	<stop  offset="1" style="stop-color:#FFFFFF;stop-opacity:0"/>
</linearGradient>
<path class="st8" d="M454.6,484.2l-124.3-71.8l0.1,269.3l124.3,71.8L454.6,484.2z"/>
<path class="st3" d="M493.5,603l-97.8-56.5v32.3l97.8,56.5V603z"/>
<path class="st4" d="M454.7,713.5l-124.3-71.8v39.9l124.3,71.8V713.5z"/>
<path class="st4" d="M349.1,463.3l51,29.4v13.6l-51-29.4V463.3z"/>
<path class="st4" d="M349.1,490.6l90.2,52.1v13.6l-90.2-52.1L349.1,490.6z"/>
<path class="st4" d="M386.4,630.6v13.6l52.9,30.6v-13.6L386.4,630.6z"/>
<linearGradient id="SVGID_7_" gradientUnits="userSpaceOnUse" x1="729.1766" y1="387.8705" x2="676.8185" y2="429.1905" gradientTransform="matrix(1 0 0 1 0 -36)">
	<stop  offset="0" style="stop-color:#FFFFFF"/>
	<stop  offset="1" style="stop-color:#FFFFFF;stop-opacity:0"/>
</linearGradient>
<path class="st9" d="M708.3,312.9c6,3.4,10.8,11.8,10.8,18.7v30.5l20.2,11.6c6,3.4,10.8,11.8,10.8,18.7c0,6.9-4.8,9.7-10.8,6.3
	l-20.2-11.6v30.5c0,6.9-4.8,9.7-10.8,6.3c-6-3.4-10.8-11.8-10.8-18.7v-30.5L677.3,363c-6-3.4-10.8-11.8-10.8-18.8
	c0-6.9,4.8-9.7,10.8-6.3l20.2,11.6V319C697.5,312.2,702.3,309.4,708.3,312.9z"/>
</svg>
