<?xml version="1.0" encoding="utf-8"?>
<!-- Generator: Adobe Illustrator 22.1.0, SVG Export Plug-In . SVG Version: 6.00 Build 0)  -->
<svg version="1.1" id="Слой_1" xmlns="http://www.w3.org/2000/svg" xmlns:xlink="http://www.w3.org/1999/xlink" x="0px" y="0px"
	 viewBox="0 0 773 743" style="enable-background:new 0 0 773 743;" xml:space="preserve">
<style type="text/css">
	.st0{opacity:7.000000e-02;fill:url(#SVGID_1_);enable-background:new    ;}
	.st1{opacity:0.4;fill:url(#SVGID_2_);enable-background:new    ;}
	.st2{opacity:0.2;fill:url(#SVGID_3_);enable-background:new    ;}
	.st3{opacity:0.3;fill:url(#SVGID_4_);enable-background:new    ;}
	.st4{fill:#F2994A;}
	.st5{opacity:0.15;fill:#FFFFFF;enable-background:new    ;}
	.st6{opacity:0.3;fill:url(#SVGID_5_);enable-background:new    ;}
	.st7{opacity:0.3;fill:url(#SVGID_6_);enable-background:new    ;}
	.st8{fill:#F2C94C;}
	.st9{opacity:0.2;fill:#FFFFFF;enable-background:new    ;}
</style>
<linearGradient id="SVGID_1_" gradientUnits="userSpaceOnUse" x1="58.0128" y1="579.057" x2="389.9468" y2="414.3944" gradientTransform="matrix(1 0 0 -1 0 744)">
	<stop  offset="0" style="stop-color:#FFFFFF"/>
	<stop  offset="1" style="stop-color:#FFFFFF;stop-opacity:0"/>
</linearGradient>
<path class="st0" d="M94,375.2c0,137.2,80.3,202,179.3,144.9c99-57.1,179.2-214.7,179.2-351.8c0-137.2-80.3-202-179.3-144.9
	C174.2,80.5,94,238,94,375.2z"/>
<linearGradient id="SVGID_2_" gradientUnits="userSpaceOnUse" x1="278.4465" y1="600.5687" x2="479.2865" y2="505.9952" gradientTransform="matrix(1 0 0 -1 0 744)">
	<stop  offset="0" style="stop-color:#FFFFFF"/>
	<stop  offset="1" style="stop-color:#FFFFFF;stop-opacity:0"/>
</linearGradient>
<path class="st1" d="M354.7,86.7c23.5-13.6,46.8-20.6,68.6-20.7c21.7-0.1,41.5,6.8,58.2,20.3s29.9,33.2,38.9,58.1
	c9,24.9,13.7,54.6,13.7,87.2L354.7,335L354.7,86.7z"/>
<linearGradient id="SVGID_3_" gradientUnits="userSpaceOnUse" x1="184.8337" y1="531.4088" x2="331.7597" y2="379.7088" gradientTransform="matrix(1 0 0 -1 0 744)">
	<stop  offset="0" style="stop-color:#FFFFFF"/>
	<stop  offset="1" style="stop-color:#FFFFFF;stop-opacity:0"/>
</linearGradient>
<path class="st2" d="M494,197.2c0,49.1-10.5,103.2-30.2,155.4c-19.7,52.2-47.7,100.2-80.4,137.9s-68.8,63.4-103.6,73.9
	c-34.8,10.5-66.7,5.3-91.8-15c-25.1-20.3-42.1-54.7-49.1-98.8c-6.9-44.2-3.4-96.2,10.2-149.4c13.6-53.2,36.5-105.3,66-149.6
	c29.5-44.3,64.1-78.9,99.6-99.3l0,248.4L494,197.2z"/>
<linearGradient id="SVGID_4_" gradientUnits="userSpaceOnUse" x1="508.3963" y1="634.0975" x2="662.0473" y2="513.7936" gradientTransform="matrix(1 0 0 -1 0 744)">
	<stop  offset="0" style="stop-color:#FFFFFF"/>
	<stop  offset="1" style="stop-color:#FFFFFF;stop-opacity:0"/>
</linearGradient>
<path class="st3" d="M443.5,172L741.1,0.3L741,155.3L469.7,311.9l-26.3,38.9L443.5,172z"/>
<path class="st4" d="M772.8,60.7l0-42.1L660.5,83.5l0,42.1L772.8,60.7z"/>
<path class="st5" d="M520,165.6l65.2-37.6l0,13.6L520,179.2L520,165.6z"/>
<path class="st5" d="M520,192.9l125.7-72.5l0,13.6L520,206.5L520,192.9z"/>
<path class="st5" d="M520,220.1l152.3-87.9l0,13.6L520,233.8L520,220.1z"/>
<path class="st4" d="M503.9,189.1c0,12.8-7.6,27.5-16.9,32.9c-9.3,5.4-16.9-0.6-16.9-13.4c0-12.8,7.6-27.5,16.9-32.9
	C496.4,170.3,503.9,176.3,503.9,189.1z"/>
<linearGradient id="SVGID_5_" gradientUnits="userSpaceOnUse" x1="195.9805" y1="327.0455" x2="157.5105" y2="15.0155" gradientTransform="matrix(1 0 0 -1 0 744)">
	<stop  offset="0" style="stop-color:#FFFFFF"/>
	<stop  offset="1" style="stop-color:#FFFFFF;stop-opacity:0"/>
</linearGradient>
<path class="st6" d="M323.8,411.9L26.3,583.7l-0.1,155.1l271.3-156.6l26.2,8.6L323.8,411.9z"/>
<path class="st4" d="M112.8,611l0-42.1L0.5,633.8l0,42.1L112.8,611z"/>
<path class="st5" d="M247.3,493.9l-65.2,37.6l0,13.6l65.2-37.6L247.3,493.9z"/>
<path class="st5" d="M247.3,521.1l-117.7,67.9l0,13.6l117.7-67.9L247.3,521.1z"/>
<path class="st5" d="M247.3,548.4L95,636.3l0,13.6L247.2,562L247.3,548.4z"/>
<path class="st4" d="M263.3,498.8c0,12.8,7.6,18.8,16.9,13.4c9.3-5.4,16.9-20.1,16.9-32.9c0-12.8-7.6-18.8-16.9-13.4
	C270.9,471.3,263.3,486,263.3,498.8z"/>
<linearGradient id="SVGID_6_" gradientUnits="userSpaceOnUse" x1="347.5888" y1="381.5337" x2="496.3558" y2="123.7947" gradientTransform="matrix(1 0 0 -1 0 744)">
	<stop  offset="0" style="stop-color:#FFFFFF"/>
	<stop  offset="1" style="stop-color:#FFFFFF;stop-opacity:0"/>
</linearGradient>
<path class="st7" d="M533.1,335.1l-167.6,96.7l0,310.5l167.6-96.7L533.1,335.1z"/>
<path class="st5" d="M516.6,519.4L382,597.1l0,13.6l134.6-77.7L516.6,519.4z"/>
<path class="st5" d="M507.2,551.4l-115.7,66.8l0,13.6L507.2,565L507.2,551.4z"/>
<path class="st8" d="M458.3,606.9l116.6-67.3l0,34.7l-116.6,67.3L458.3,606.9z"/>
<path class="st8" d="M430.2,457.2c0,15,8.7,22.1,19.4,15.9c10.7-6.3,19.4-23.5,19.4-38.6c0-15-8.7-22.1-19.4-15.9
	C438.9,424.9,430.2,442.2,430.2,457.2z"/>
<path class="st8" d="M449.7,485.2c17.3-10.1,31.6-0.6,34.1,21.1c0.4,3.8-2.4,8.8-5.9,10.8l-56.4,33c-3.5,2-6.3,0.4-5.9-3.9
	C418.1,521.4,432.4,495.3,449.7,485.2z"/>
<path class="st9" d="M626.4,309.7l42.8-24.7l0-14.4l-42.8,24.7c-3.5,2-8.6,6.1-12.9,12.4c-4.7,6.7-8,15.2-8,24.4
	c0,10.2,2.6,16,7.5,17.6c4.6,1.5,10.1-1.1,13.4-3l17.6-10.2l0.1-0.1c1.5-0.9,3.9-1.8,5.8-1.2c1.6,0.5,3.3,2,3.3,7.7
	c0,5.7-1.8,9.1-3.2,11.2c-1.8,2.6-4.2,4.4-5.7,5.2l-0.2,0.1l-53.8,31.1l0,14.4l53.5-30.9c3.7-1.9,9-6,13.6-12.4
	c5-7.1,8.4-16,8.4-25.9c0-9.9-3.4-14.9-8.3-16.3c-4.6-1.3-9.9,0.6-13.6,2.8l-17.4,10.1c-2.5,1.5-4.4,2.1-5.7,1.7
	c-1-0.3-2.8-1.7-2.8-9c0-4.8,1.5-7.9,3-9.9C622.8,312.4,625,310.5,626.4,309.7z"/>
<path class="st4" d="M661.4,281.9c0,12.9,7.6,19,16.9,13.7c9.3-5.4,16.9-20.2,16.9-33.2c0-12.9-7.6-19-16.9-13.7
	C669,254.1,661.4,269,661.4,281.9z"/>
<path class="st8" d="M568.4,409.9c0,12.9,7.6,19,16.9,13.7c9.3-5.4,16.9-20.2,16.9-33.2c0-12.9-7.6-19-16.9-13.7
	C576,382.1,568.4,397,568.4,409.9z"/>
</svg>
