<?xml version="1.0" encoding="utf-8"?>
<!-- Generator: Adobe Illustrator 22.1.0, SVG Export Plug-In . SVG Version: 6.00 Build 0)  -->
<svg version="1.1" id="Слой_1" xmlns="http://www.w3.org/2000/svg" xmlns:xlink="http://www.w3.org/1999/xlink" x="0px" y="0px"
	 viewBox="0 0 773 811" style="enable-background:new 0 0 773 811;" xml:space="preserve">
<style type="text/css">
	.st0{opacity:7.000000e-02;fill:url(#SVGID_1_);enable-background:new    ;}
	.st1{opacity:0.4;fill:url(#SVGID_2_);enable-background:new    ;}
	.st2{opacity:0.3;fill:url(#SVGID_3_);enable-background:new    ;}
	.st3{opacity:0.15;fill:#FFFFFF;enable-background:new    ;}
	.st4{fill:#F2C94C;}
	.st5{opacity:0.3;fill:url(#SVGID_4_);enable-background:new    ;}
	.st6{fill:#F2994A;}
	.st7{opacity:0.3;fill:url(#SVGID_5_);enable-background:new    ;}
	.st8{opacity:0.2;fill:url(#SVGID_6_);enable-background:new    ;}
	.st9{opacity:0.2;fill:url(#SVGID_7_);enable-background:new    ;}
</style>
<linearGradient id="SVGID_1_" gradientUnits="userSpaceOnUse" x1="37.7035" y1="615.2744" x2="387.4715" y2="473.29" gradientTransform="matrix(1 0 0 -1 0 812)">
	<stop  offset="0" style="stop-color:#FFFFFF"/>
	<stop  offset="1" style="stop-color:#FFFFFF;stop-opacity:0"/>
</linearGradient>
<path class="st0" d="M260.2,598.5c0,0-126-199-126-335.9c0-96.7,56.4-207.5,126-247.6s126,5.8,126,102.5
	C386.2,253.2,260.2,598.5,260.2,598.5z M260.2,112.2c-30.7,17.7-55.6,66.4-55.6,108.9c0,42.4,24.9,62.5,55.6,44.8
	c30.7-17.7,55.6-66.4,55.6-108.9C315.8,114.6,290.9,94.5,260.2,112.2z"/>
<linearGradient id="SVGID_2_" gradientUnits="userSpaceOnUse" x1="77.7073" y1="585.2744" x2="427.4753" y2="443.2898" gradientTransform="matrix(1 0 0 -1 0 812)">
	<stop  offset="0" style="stop-color:#FFFFFF"/>
	<stop  offset="1" style="stop-color:#FFFFFF;stop-opacity:0"/>
</linearGradient>
<path class="st1" d="M300.2,628.5c0,0-126-199-126-335.9c0-96.7,56.4-207.5,126-247.6s126,5.8,126,102.5
	C426.2,283.2,300.2,628.5,300.2,628.5z M300.2,142.2c-30.7,17.7-55.6,66.4-55.6,108.9c0,42.4,24.9,62.5,55.6,44.8
	s55.6-66.4,55.6-108.9C355.8,144.6,330.9,124.5,300.2,142.2z"/>
<linearGradient id="SVGID_3_" gradientUnits="userSpaceOnUse" x1="349.7912" y1="428.682" x2="515.7012" y2="141.243" gradientTransform="matrix(1 0 0 -1 0 812)">
	<stop  offset="0" style="stop-color:#FFFFFF"/>
	<stop  offset="1" style="stop-color:#FFFFFF;stop-opacity:0"/>
</linearGradient>
<path class="st2" d="M556.7,352.8L369.8,460.7l0,346.3l186.9-107.9L556.7,352.8z"/>
<path class="st3" d="M527,573l-111.4,64.3l0,13.6L527,586.6L527,573z"/>
<path class="st3" d="M515.5,606.7l-88.3,50.9l0,13.6l88.3-51L515.5,606.7z"/>
<path class="st4" d="M485.3,668.3l130-75.1l0,38.7l-130,75.1L485.3,668.3z"/>
<path class="st3" d="M464.7,466.5l38.9-22.5l0-13.1l-38.9,22.5c-3.2,1.8-7.8,5.6-11.7,11.3c-4.2,6.1-7.3,13.8-7.3,22.2
	c0,9.2,2.4,14.5,6.8,16c4.2,1.4,9.2-1,12.2-2.8l16-9.2l0.1-0.1c1.4-0.8,3.6-1.6,5.3-1.1c1.4,0.4,3,1.8,3,7c0,5.1-1.6,8.3-2.9,10.2
	c-1.7,2.3-3.8,4-5.2,4.7l-0.2,0.1l-49,28.3l0,13.1l48.6-28.1c3.3-1.7,8.2-5.4,12.3-11.3c4.6-6.4,7.7-14.5,7.7-23.6
	c0-9-3.1-13.6-7.6-14.9c-4.2-1.2-9,0.5-12.3,2.6l-15.8,9.1c-2.3,1.3-4,1.9-5.2,1.5c-0.9-0.3-2.5-1.5-2.5-8.2c0-4.3,1.4-7.1,2.7-9
	C461.3,469,463.4,467.3,464.7,466.5z"/>
<path class="st4" d="M489.7,447.7c0,12.9,7.6,19,16.9,13.7c9.3-5.4,16.9-20.2,16.9-33.2c0-12.9-7.6-19-16.9-13.7
	C497.3,419.9,489.7,434.8,489.7,447.7z"/>
<path class="st4" d="M406.7,561.7c0,12.9,7.6,19,16.9,13.7c9.3-5.4,16.9-20.2,16.9-33.2c0-12.9-7.6-19-16.9-13.7
	C414.3,533.9,406.7,548.8,406.7,561.7z"/>
<linearGradient id="SVGID_4_" gradientUnits="userSpaceOnUse" x1="508.1188" y1="665.0289" x2="661.7698" y2="544.7249" gradientTransform="matrix(1 0 0 -1 0 812)">
	<stop  offset="0" style="stop-color:#FFFFFF"/>
	<stop  offset="1" style="stop-color:#FFFFFF;stop-opacity:0"/>
</linearGradient>
<path class="st5" d="M443.2,209.1L740.8,37.3l-0.1,155.1L469.4,349l-26.3,38.9L443.2,209.1z"/>
<path class="st6" d="M772.5,97.8l0-42.1l-112.3,64.8l0,42.1L772.5,97.8z"/>
<path class="st3" d="M519.7,202.7l65.2-37.6l0,13.6l-65.2,37.6L519.7,202.7z"/>
<path class="st3" d="M519.7,229.9l125.7-72.5l0,13.6l-125.7,72.5L519.7,229.9z"/>
<path class="st3" d="M519.7,257.2L672,169.3l0,13.6l-152.3,87.9L519.7,257.2z"/>
<path class="st6" d="M503.7,226.1c0,12.8-7.6,27.5-16.9,32.9c-9.3,5.4-16.9-0.6-16.9-13.4c0-12.8,7.6-27.5,16.9-32.9
	C496.1,207.4,503.7,213.4,503.7,226.1z"/>
<linearGradient id="SVGID_5_" gradientUnits="userSpaceOnUse" x1="195.7005" y1="322.8966" x2="157.2295" y2="10.8656" gradientTransform="matrix(1 0 0 -1 0 812)">
	<stop  offset="0" style="stop-color:#FFFFFF"/>
	<stop  offset="1" style="stop-color:#FFFFFF;stop-opacity:0"/>
</linearGradient>
<path class="st7" d="M323.5,484.1L26,655.8l-0.1,155.1l271.3-156.6l26.2,8.6L323.5,484.1z"/>
<path class="st6" d="M112.5,683.2l0-42.1L0.2,705.9l0,42.1L112.5,683.2z"/>
<path class="st3" d="M247,566l-65.2,37.6l0,13.6l65.2-37.6L247,566z"/>
<path class="st3" d="M247,593.3l-117.7,67.9l0,13.6L247,606.9L247,593.3z"/>
<path class="st3" d="M247,620.5L94.7,708.4l0,13.6L247,634.2L247,620.5z"/>
<path class="st6" d="M263,570.9c0,12.8,7.6,18.8,16.9,13.4c9.3-5.4,16.9-20.1,16.9-32.9c0-12.8-7.6-18.8-16.9-13.4
	C270.6,543.4,263.1,558.2,263,570.9z"/>
<linearGradient id="SVGID_6_" gradientUnits="userSpaceOnUse" x1="635.6547" y1="414.8818" x2="685.4927" y2="371.7308" gradientTransform="matrix(1 0 0 -1 0 812)">
	<stop  offset="0" style="stop-color:#FFFFFF"/>
	<stop  offset="1" style="stop-color:#FFFFFF;stop-opacity:0"/>
</linearGradient>
<path class="st8" d="M649.9,461c67.6-86.8,18.7-118,0-67.2C631.2,364.7,582.3,452.3,649.9,461z"/>
<linearGradient id="SVGID_7_" gradientUnits="userSpaceOnUse" x1="52.9148" y1="295.0987" x2="148.7014" y2="359.4117" gradientTransform="matrix(1 0 0 -1 0 812)">
	<stop  offset="0" style="stop-color:#FFFFFF"/>
	<stop  offset="1" style="stop-color:#FFFFFF;stop-opacity:0"/>
</linearGradient>
<path class="st9" d="M37.5,523.1L73,551.8c3.8,3.1,10.7-0.1,15.2-7.2c4.6-7.1,5.2-15.3,1.4-18.4l-14.9-12l56.8-32.8
	c6-3.5,10.8-11.8,10.8-18.7c0-6.9-4.8-9.7-10.8-6.3l-56.8,32.8l14.9-29.3c3.8-7.5,3.2-15-1.4-16.8c-4.6-1.8-11.4,2.9-15.2,10.4
	L37.5,523.1z"/>
</svg>
