<?xml version="1.0" encoding="utf-8"?>
<!-- Generator: Adobe Illustrator 22.1.0, SVG Export Plug-In . SVG Version: 6.00 Build 0)  -->
<svg version="1.1" id="Слой_1" xmlns="http://www.w3.org/2000/svg" xmlns:xlink="http://www.w3.org/1999/xlink" x="0px" y="0px"
	 viewBox="0 0 718 764" style="enable-background:new 0 0 718 764;" xml:space="preserve">
<style type="text/css">
	.st0{opacity:0.4;fill:url(#SVGID_1_);enable-background:new    ;}
	.st1{opacity:7.000000e-02;fill:url(#SVGID_2_);enable-background:new    ;}
	.st2{opacity:7.000000e-02;fill:url(#SVGID_3_);enable-background:new    ;}
	.st3{opacity:7.000000e-02;fill:url(#SVGID_4_);enable-background:new    ;}
	.st4{opacity:0.2;fill:url(#SVGID_5_);enable-background:new    ;}
	.st5{opacity:0.15;fill:url(#SVGID_6_);enable-background:new    ;}
	.st6{fill:#F2994A;}
	.st7{opacity:0.3;fill:url(#SVGID_7_);enable-background:new    ;}
	.st8{opacity:0.15;fill:#FFFFFF;enable-background:new    ;}
	.st9{opacity:0.3;fill:url(#SVGID_8_);enable-background:new    ;}
	.st10{fill:#F2C94C;}
	.st11{opacity:0.2;fill:#FFFFFF;enable-background:new    ;}
	.st12{opacity:0.2;fill:url(#SVGID_9_);enable-background:new    ;}
</style>
<linearGradient id="SVGID_1_" gradientUnits="userSpaceOnUse" x1="7.2746" y1="599.3603" x2="288.9256" y2="312.0167" gradientTransform="matrix(1 0 0 -1 0 766)">
	<stop  offset="0" style="stop-color:#FFFFFF"/>
	<stop  offset="1" style="stop-color:#FFFFFF;stop-opacity:0"/>
</linearGradient>
<path class="st0" d="M110.6,232.3c-38.6,22.3-69.9-3-70-56.5c0-53.5,31.3-115,69.9-137.3s69.9,3,70,56.5c0,11.8-1.5,23.9-4.3,35.9
	l142.3,53.1c12.6-24.3,29.9-44.8,48.9-55.8c38.6-22.3,69.9,3,70,56.5c0,53.5-31.3,115-69.9,137.3c-18.3,10.6-35,10.4-47.5,1.7
	L180.5,536.9c0,1.3,0.1,2.5,0.1,3.8c0,53.5-31.3,115-69.9,137.3c-38.6,22.3-69.9-3-70-56.5c0-53.5,31.3-115,69.9-137.3
	c25.4-14.6,47.6-8.7,59.9,12.2L301.7,296c-2.7-8.7-4.1-18.9-4.1-30.5c0-10.6,1.2-21.4,3.5-32.2l-143.3-53.5
	C145.3,202.7,128.8,221.8,110.6,232.3z"/>
<linearGradient id="SVGID_2_" gradientUnits="userSpaceOnUse" x1="35.9522" y1="696.7139" x2="317.6042" y2="409.3706" gradientTransform="matrix(1 0 0 -1 0 766)">
	<stop  offset="0" style="stop-color:#FFFFFF"/>
	<stop  offset="1" style="stop-color:#FFFFFF;stop-opacity:0"/>
</linearGradient>
<path class="st1" d="M1,145.4c0,53.5,31.3,78.8,70,56.5c38.6-22.3,69.9-83.8,69.9-137.3c0-53.5-31.3-78.8-70-56.5
	C32.3,30.4,1,91.9,1,145.4z"/>
<linearGradient id="SVGID_3_" gradientUnits="userSpaceOnUse" x1="292.9523" y1="608.714" x2="574.6043" y2="321.3707" gradientTransform="matrix(1 0 0 -1 0 766)">
	<stop  offset="0" style="stop-color:#FFFFFF"/>
	<stop  offset="1" style="stop-color:#FFFFFF;stop-opacity:0"/>
</linearGradient>
<path class="st2" d="M258,233.4c0,53.5,31.3,78.8,70,56.5s69.9-83.8,69.9-137.3c0-53.5-31.3-78.8-70-56.5
	C289.3,118.4,258,179.9,258,233.4z"/>
<linearGradient id="SVGID_4_" gradientUnits="userSpaceOnUse" x1="34.9528" y1="250.7134" x2="316.6038" y2="-36.6295" gradientTransform="matrix(1 0 0 -1 0 766)">
	<stop  offset="0" style="stop-color:#FFFFFF"/>
	<stop  offset="1" style="stop-color:#FFFFFF;stop-opacity:0"/>
</linearGradient>
<path class="st3" d="M0,591.4c0,53.5,31.3,78.8,70,56.5s69.9-83.8,69.9-137.3c0-53.5-31.3-78.8-70-56.5C31.3,476.4,0,537.9,0,591.4z
	"/>
<linearGradient id="SVGID_5_" gradientUnits="userSpaceOnUse" x1="477.259" y1="319.2966" x2="498.624" y2="144.5956" gradientTransform="matrix(1 0 0 -1 0 766)">
	<stop  offset="0" style="stop-color:#FFFFFF"/>
	<stop  offset="1" style="stop-color:#FFFFFF;stop-opacity:0"/>
</linearGradient>
<path class="st4" d="M591.9,426L393.3,540.7l-0.1,176.8l198.6-114.7L591.9,426z"/>
<linearGradient id="SVGID_6_" gradientUnits="userSpaceOnUse" x1="494.8332" y1="332.0773" x2="486.3252" y2="144.5213" gradientTransform="matrix(1 0 0 -1 0 766)">
	<stop  offset="0" style="stop-color:#FFFFFF"/>
	<stop  offset="1" style="stop-color:#FFFFFF;stop-opacity:0"/>
</linearGradient>
<path class="st5" d="M591.9,426l-99.4,163.4l-99.3-48.8L591.9,426z"/>
<path class="st6" d="M475.4,593.2c0,12.5,7.5,18.2,16.9,12.8c9.3-5.4,16.9-19.9,16.9-32.3c0-12.5-7.5-18.2-16.9-12.8
	C483,566.3,475.4,580.8,475.4,593.2z"/>
<linearGradient id="SVGID_7_" gradientUnits="userSpaceOnUse" x1="455.0569" y1="490.0032" x2="605.424" y2="370.6232" gradientTransform="matrix(1 0 0 -1 0 766)">
	<stop  offset="0" style="stop-color:#FFFFFF"/>
	<stop  offset="1" style="stop-color:#FFFFFF;stop-opacity:0"/>
</linearGradient>
<path class="st7" d="M388.4,339.7L686,168.1l-0.1,151.3L414.5,475.9l-26.3,38.3L388.4,339.7z"/>
<path class="st6" d="M717.7,226.7l0-41.1l-112.3,64.8l0,41.1L717.7,226.7z"/>
<path class="st8" d="M464.9,332.4l65.2-37.6l0,13.3l-65.2,37.6L464.9,332.4z"/>
<path class="st8" d="M464.9,359l125.7-72.5l0,13.3l-125.7,72.5L464.9,359z"/>
<path class="st8" d="M464.8,385.6l152.3-87.8l0,13.3l-152.3,87.8L464.8,385.6z"/>
<path class="st6" d="M448.8,355.5c0,12.5-7.6,26.9-16.9,32.3c-9.3,5.4-16.9-0.4-16.9-12.8c0-12.5,7.6-26.9,16.9-32.3
	C441.3,337.3,448.8,343.1,448.8,355.5z"/>
<linearGradient id="SVGID_8_" gradientUnits="userSpaceOnUse" x1="230.4138" y1="318.8459" x2="197.7888" y2="13.2338" gradientTransform="matrix(1 0 0 -1 0 766)">
	<stop  offset="0" style="stop-color:#FFFFFF"/>
	<stop  offset="1" style="stop-color:#FFFFFF;stop-opacity:0"/>
</linearGradient>
<path class="st9" d="M361.5,440.9L63.9,612.5l-0.1,151.3l271.3-156.5l26.2,8L361.5,440.9z"/>
<path class="st10" d="M150.4,638l0-41.1L38.1,661.7l0,41.1L150.4,638z"/>
<path class="st8" d="M284.9,521.8l-65.2,37.6l0,13.3l65.2-37.6L284.9,521.8z"/>
<path class="st8" d="M284.9,548.4l-117.7,67.9l0,13.3l117.7-67.9L284.9,548.4z"/>
<path class="st8" d="M284.9,575.1l-152.3,87.8l0,13.3l152.3-87.8L284.9,575.1z"/>
<path class="st10" d="M301,526.4c0,12.5,7.5,18.2,16.9,12.8c9.3-5.4,16.9-19.9,16.9-32.3c0-12.5-7.5-18.2-16.9-12.8
	C308.5,499.5,301,514,301,526.4z"/>
<path class="st11" d="M522.7,136.6l42.8-24.7l0-14.4l-42.8,24.7c-3.5,2-8.6,6.1-12.9,12.4c-4.7,6.7-8,15.2-8,24.4
	c0,10.2,2.6,16,7.5,17.6c4.6,1.5,10.1-1.1,13.4-3l17.6-10.2l0.1-0.1c1.5-0.9,3.9-1.8,5.8-1.2c1.6,0.5,3.3,2,3.3,7.7
	c0,5.7-1.8,9.1-3.2,11.2c-1.8,2.6-4.2,4.4-5.7,5.2l-0.2,0.1l-53.8,31.1l0,14.4l53.5-30.9c3.7-1.9,9-6,13.6-12.4
	c5-7.1,8.4-16,8.4-25.9c0-9.9-3.4-14.9-8.3-16.3c-4.6-1.3-9.9,0.6-13.6,2.8l-17.4,10.1c-2.5,1.5-4.4,2.1-5.7,1.7
	c-1-0.3-2.8-1.7-2.8-9c0-4.8,1.5-7.9,3-9.9C519,139.3,521.3,137.4,522.7,136.6z"/>
<path class="st6" d="M557.7,108.8c0,12.9,7.6,19,16.9,13.7c9.3-5.4,16.9-20.2,16.9-33.2c0-12.9-7.6-19-16.9-13.7
	C565.2,81,557.7,95.9,557.7,108.8z"/>
<path class="st10" d="M464.7,236.8c0,12.9,7.6,19,16.9,13.7c9.3-5.4,16.9-20.2,16.9-33.2c0-12.9-7.6-19-16.9-13.7
	C472.2,209,464.7,223.9,464.7,236.8z"/>
<linearGradient id="SVGID_9_" gradientUnits="userSpaceOnUse" x1="368.6279" y1="92.4176" x2="407.7709" y2="58.6026" gradientTransform="matrix(1 0 0 -1 0 766)">
	<stop  offset="0" style="stop-color:#FFFFFF"/>
	<stop  offset="1" style="stop-color:#FFFFFF;stop-opacity:0"/>
</linearGradient>
<path class="st12" d="M379.8,723.8c52.9-68.1,14.6-92.6,0-52.8C365.2,648,326.9,716.8,379.8,723.8z"/>
</svg>
