<?xml version="1.0" encoding="utf-8"?>
<!-- Generator: Adobe Illustrator 22.1.0, SVG Export Plug-In . SVG Version: 6.00 Build 0)  -->
<svg version="1.1" id="illustration" xmlns="http://www.w3.org/2000/svg" xmlns:xlink="http://www.w3.org/1999/xlink" x="0px"
	 y="0px" viewBox="0 0 779 899" style="enable-background:new 0 0 779 899;" xml:space="preserve">
<style type="text/css">
	.st0{opacity:7.000000e-02;fill:url(#SVGID_1_);enable-background:new    ;}
	.st1{opacity:0.4;fill:url(#SVGID_2_);enable-background:new    ;}
	.st2{opacity:0.3;fill:url(#SVGID_3_);enable-background:new    ;}
	.st3{fill:#F2994A;}
	.st4{opacity:0.15;fill:#FFFFFF;enable-background:new    ;}
	.st5{opacity:0.3;fill:url(#SVGID_4_);enable-background:new    ;}
	.st6{fill:#F2C94C;}
	.st7{opacity:0.2;fill:url(#SVGID_5_);enable-background:new    ;}
	.st8{opacity:0.2;fill:url(#SVGID_6_);enable-background:new    ;}
	.st9{opacity:0.2;fill:#FFFFFF;enable-background:new    ;}
	.st10{opacity:0.2;fill:url(#SVGID_7_);enable-background:new    ;}
</style>
<linearGradient id="SVGID_1_" gradientUnits="userSpaceOnUse" x1="610.7404" y1="65.7676" x2="407.0955" y2="334.6986" gradientTransform="matrix(1 0 0 1 0 108)">
	<stop  offset="0" style="stop-color:#FFFFFF"/>
	<stop  offset="1" style="stop-color:#FFFFFF;stop-opacity:0"/>
</linearGradient>
<path class="st0" d="M331.2,2.2l446.9,499.9l-447-16c-3.3-0.1-6.9-5.5-6.1-9.1l45-199.8L595.2,390L367.3,241.1L325.1,4.4
	C324.3-0.2,327.9-1.4,331.2,2.2z"/>
<linearGradient id="SVGID_2_" gradientUnits="userSpaceOnUse" x1="576.4524" y1="90.6518" x2="372.8074" y2="359.5828" gradientTransform="matrix(1 0 0 1 0 108)">
	<stop  offset="0" style="stop-color:#FFFFFF"/>
	<stop  offset="1" style="stop-color:#FFFFFF;stop-opacity:0"/>
</linearGradient>
<path class="st1" d="M296.9,27.1L743.8,527l-447-16c-3.3-0.1-6.9-5.5-6.1-9.1l44.9-199.7L560.8,415L333.1,266L290.8,29.3
	C290,24.7,293.6,23.5,296.9,27.1z"/>
<linearGradient id="SVGID_3_" gradientUnits="userSpaceOnUse" x1="264.9165" y1="385.035" x2="111.2656" y2="505.3391" gradientTransform="matrix(1 0 0 1 0 108)">
	<stop  offset="0" style="stop-color:#FFFFFF"/>
	<stop  offset="1" style="stop-color:#FFFFFF;stop-opacity:0"/>
</linearGradient>
<path class="st2" d="M329.8,555.2L32.2,383.4l0.1,155.1l271.3,156.6l26.3,38.9L329.8,555.2z"/>
<path class="st3" d="M0.5,443.9v-42.1l112.3,64.8v42.1L0.5,443.9z"/>
<path class="st4" d="M253.3,548.8l-65.2-37.6v13.6l65.2,37.6V548.8z"/>
<path class="st4" d="M253.3,576l-125.7-72.5v13.6l125.7,72.5V576z"/>
<path class="st4" d="M253.4,603.3l-152.3-87.9V529l152.3,87.9V603.3z"/>
<path class="st3" d="M269.4,572.2c0,12.8,7.6,27.5,16.9,32.9s16.9-0.6,16.9-13.4c0-12.8-7.6-27.5-16.9-32.9
	C276.9,553.4,269.4,559.4,269.4,572.2z"/>
<linearGradient id="SVGID_4_" gradientUnits="userSpaceOnUse" x1="483.3527" y1="324.0946" x2="521.8237" y2="636.1266" gradientTransform="matrix(1 0 0 1 0 108)">
	<stop  offset="0" style="stop-color:#FFFFFF"/>
	<stop  offset="1" style="stop-color:#FFFFFF;stop-opacity:0"/>
</linearGradient>
<path class="st5" d="M355.5,427.1l297.6,171.8l0.1,155.1L381.8,597.3l-26.2,8.6L355.5,427.1z"/>
<path class="st6" d="M566.5,626.2v-42.1l112.3,64.8V691L566.5,626.2z"/>
<path class="st4" d="M432,509l65.2,37.6v13.6L432,522.6V509z"/>
<path class="st4" d="M432,536.3l117.7,67.9v13.6L432,549.9V536.3z"/>
<path class="st4" d="M432.1,563.5l152.3,87.9V665l-152.3-87.9L432.1,563.5z"/>
<path class="st6" d="M416,513.9c0,12.8-7.6,18.8-16.9,13.4c-9.3-5.4-16.9-20.1-16.9-32.9s7.6-18.8,16.9-13.4
	C408.4,486.4,416,501.2,416,513.9z"/>
<linearGradient id="SVGID_5_" gradientUnits="userSpaceOnUse" x1="625.0026" y1="658.5591" x2="584.8974" y2="728.0408" gradientTransform="matrix(1 0 0 1 0 108)">
	<stop  offset="0" style="stop-color:#FFFFFF"/>
	<stop  offset="1" style="stop-color:#FFFFFF;stop-opacity:0"/>
</linearGradient>
<path class="st7" d="M693.8,806.3L516.1,703.7v92.6l177.7,102.6V806.3z"/>
<path class="st4" d="M561.6,752.3l53.4,30.9v11.1l-53.4-30.9V752.3z"/>
<path class="st4" d="M561.6,774.6l113.8,65.7v11.3l-113.8-65.7V774.6z"/>
<path class="st6" d="M552.2,755.6c0,7.6-4.5,11.2-10.1,8S532,751.6,532,744s4.5-11.2,10.1-8S552.2,748,552.2,755.6z"/>
<linearGradient id="SVGID_6_" gradientUnits="userSpaceOnUse" x1="133.0028" y1="516.5583" x2="92.8972" y2="586.0417" gradientTransform="matrix(1 0 0 1 0 108)">
	<stop  offset="0" style="stop-color:#FFFFFF"/>
	<stop  offset="1" style="stop-color:#FFFFFF;stop-opacity:0"/>
</linearGradient>
<path class="st8" d="M201.8,664.3L24.1,561.7v92.6l177.7,102.6V664.3z"/>
<path class="st4" d="M69.6,610.3l53.4,30.9v11.1l-53.4-30.9V610.3z"/>
<path class="st4" d="M69.6,632.6l113.8,65.7v11.3L69.6,643.9V632.6z"/>
<path class="st3" d="M60.2,613.6c0,7.6-4.5,11.2-10.1,8S40,609.6,40,602s4.5-11.2,10.1-8S60.2,606,60.2,613.6z"/>
<path class="st9" d="M227.3,369.8l-42.8-24.7v-14.4l42.8,24.7c3.5,2,8.6,6.1,12.9,12.4c4.7,6.7,8,15.2,8,24.4
	c0,10.2-2.6,16-7.5,17.6c-4.6,1.5-10.1-1.1-13.4-3l-17.6-10.2l-0.1-0.1c-1.5-0.9-3.9-1.8-5.8-1.2c-1.6,0.5-3.3,2-3.3,7.7
	s1.8,9.1,3.2,11.2c1.8,2.6,4.2,4.4,5.7,5.2l0.2,0.1l53.8,31.1V465l-53.5-30.9c-3.7-1.9-9-6-13.6-12.4c-5-7.1-8.4-16-8.4-25.9
	s3.4-14.9,8.3-16.3c4.6-1.3,9.9,0.6,13.6,2.8l17.4,10c2.5,1.5,4.4,2.1,5.7,1.7c1-0.3,2.8-1.7,2.8-9c0-4.8-1.5-7.9-3-9.9
	C231,372.5,228.7,370.6,227.3,369.8z"/>
<path class="st3" d="M192.3,342c0,12.9-7.6,19-16.9,13.7c-9.3-5.4-16.9-20.2-16.9-33.2c0-12.9,7.6-19,16.9-13.7
	C184.7,314.2,192.3,329.1,192.3,342z"/>
<path class="st6" d="M285.3,470c0,12.9-7.6,19-16.9,13.7c-9.3-5.4-16.9-20.2-16.9-33.2c0-12.9,7.6-19,16.9-13.7
	C277.7,442.2,285.3,457.1,285.3,470z"/>
<linearGradient id="SVGID_7_" gradientUnits="userSpaceOnUse" x1="445.4213" y1="611.8139" x2="395.0004" y2="643.7458" gradientTransform="matrix(1 0 0 1 0 108)">
	<stop  offset="0" style="stop-color:#FFFFFF"/>
	<stop  offset="1" style="stop-color:#FFFFFF;stop-opacity:0"/>
</linearGradient>
<path class="st10" d="M404.1,676.7V761c0,0.9,0.9,1.9,1.5,1.6l19.7-12.1l20.1,35.6c1.1,1.9,3,2.1,3,0.3v-84L404.1,676.7z"/>
</svg>
