<?xml version="1.0" encoding="utf-8"?>
<!-- Generator: Adobe Illustrator 22.1.0, SVG Export Plug-In . SVG Version: 6.00 Build 0)  -->
<svg version="1.1" id="illustration" xmlns="http://www.w3.org/2000/svg" xmlns:xlink="http://www.w3.org/1999/xlink" x="0px"
	 y="0px" viewBox="0 0 779 946" style="enable-background:new 0 0 779 946;" xml:space="preserve">
<style type="text/css">
	.st0{opacity:0.3;fill:url(#SVGID_1_);enable-background:new    ;}
	.st1{fill:#F2994A;}
	.st2{opacity:0.15;fill:#FFFFFF;enable-background:new    ;}
	.st3{opacity:0.3;fill:url(#SVGID_2_);enable-background:new    ;}
	.st4{fill:#F2C94C;}
	.st5{opacity:0.3;fill:url(#SVGID_3_);enable-background:new    ;}
	.st6{opacity:0.3;fill:url(#SVGID_4_);enable-background:new    ;}
	.st7{opacity:0.4;fill:url(#SVGID_5_);enable-background:new    ;}
	.st8{opacity:0.4;fill:url(#SVGID_6_);enable-background:new    ;}
	.st9{opacity:0.4;fill:url(#SVGID_7_);enable-background:new    ;}
	.st10{opacity:0.4;fill:url(#SVGID_8_);enable-background:new    ;}
	.st11{opacity:7.000000e-02;fill:url(#SVGID_9_);enable-background:new    ;}
	.st12{opacity:7.000000e-02;fill:url(#SVGID_10_);enable-background:new    ;}
	.st13{opacity:7.000000e-02;fill:url(#SVGID_11_);enable-background:new    ;}
	.st14{opacity:7.000000e-02;fill:url(#SVGID_12_);enable-background:new    ;}
	.st15{opacity:0.2;fill:url(#SVGID_13_);enable-background:new    ;}
	.st16{opacity:0.2;fill:url(#SVGID_14_);enable-background:new    ;}
</style>
<linearGradient id="SVGID_1_" gradientUnits="userSpaceOnUse" x1="574.8591" y1="224.2451" x2="613.1342" y2="536.2681" gradientTransform="matrix(1 0 0 1 0 154)">
	<stop  offset="0" style="stop-color:#FFFFFF"/>
	<stop  offset="1" style="stop-color:#FFFFFF;stop-opacity:0"/>
</linearGradient>
<path class="st0" d="M446.9,373.2l297.6,171.9v155.1L473.2,543.4L447,552L446.9,373.2z"/>
<path class="st1" d="M507.4,460.1c0,12.8-7.6,18.8-16.9,13.4s-16.9-20.1-16.9-32.9s7.6-18.8,16.9-13.4
	C499.8,432.5,507.4,447.3,507.4,460.1z"/>
<path class="st2" d="M523.4,455.1l65.2,37.7v13.6l-65.2-37.7V455.1z"/>
<path class="st2" d="M523.4,482.4l194.7,112.5v13.6L523.4,496V482.4z"/>
<path class="st2" d="M523.4,509.6l152.3,88v13.6l-152.3-88V509.6z"/>
<linearGradient id="SVGID_2_" gradientUnits="userSpaceOnUse" x1="416.2478" y1="39.6216" x2="267.4798" y2="297.3626" gradientTransform="matrix(1 0 0 1 0 154)">
	<stop  offset="0" style="stop-color:#FFFFFF"/>
	<stop  offset="1" style="stop-color:#FFFFFF;stop-opacity:0"/>
</linearGradient>
<path class="st3" d="M230.7,166.3L398.3,263v310.5l-167.6-96.7L230.7,166.3z"/>
<path class="st2" d="M247.2,350.6l134.6,77.7v13.6l-134.6-77.7L247.2,350.6z"/>
<path class="st2" d="M256.6,382.5l115.7,66.8v13.6l-115.7-66.8L256.6,382.5z"/>
<path class="st4" d="M305.5,438.1l-116.6-67.3v34.7l116.6,67.3V438.1z"/>
<path class="st4" d="M333.6,288.3c0,15-8.7,22.1-19.4,15.9s-19.4-23.5-19.4-38.6c0-15,8.7-22.1,19.4-15.9
	C324.9,256.1,333.6,273.3,333.6,288.3z"/>
<path class="st4" d="M314.2,316.3c-17.3-10.1-31.6-0.6-34.1,21.1c-0.4,3.8,2.4,8.8,5.9,10.8l56.4,33c3.5,2,6.3,0.4,5.9-3.9
	C345.8,352.6,331.5,326.4,314.2,316.3z"/>
<linearGradient id="SVGID_3_" gradientUnits="userSpaceOnUse" x1="532.5348" y1="411.5442" x2="383.7668" y2="669.2852" gradientTransform="matrix(1 0 0 1 0 154)">
	<stop  offset="0" style="stop-color:#FFFFFF"/>
	<stop  offset="1" style="stop-color:#FFFFFF;stop-opacity:0"/>
</linearGradient>
<path class="st5" d="M347,538.2l167.6,96.7v310.5L347,848.7L347,538.2z"/>
<path class="st2" d="M363.4,722.5L498,800.2v13.6l-134.6-77.7V722.5z"/>
<path class="st2" d="M372.8,754.4l115.7,66.8v13.6L372.8,768V754.4z"/>
<path class="st1" d="M556.1,887.5l-116.6-67.3v34.7l116.6,67.3V887.5z"/>
<path class="st1" d="M449.8,660.2c0,15-8.7,22.1-19.4,15.9c-10.7-6.3-19.4-23.5-19.4-38.6c0-15,8.7-22.1,19.4-15.9
	C441.1,627.9,449.8,645.2,449.8,660.2z"/>
<path class="st1" d="M430.4,688.2c-17.3-10.1-31.6-0.6-34.1,21.1c-0.4,3.8,2.4,8.8,5.9,10.8l56.4,33c3.5,2,6.3,0.4,5.9-3.9
	C462,724.5,447.7,698.3,430.4,688.2z"/>
<linearGradient id="SVGID_4_" gradientUnits="userSpaceOnUse" x1="233.5986" y1="294.9307" x2="79.9389" y2="415.1837" gradientTransform="matrix(1 0 0 1 0 154)">
	<stop  offset="0" style="stop-color:#FFFFFF"/>
	<stop  offset="1" style="stop-color:#FFFFFF;stop-opacity:0"/>
</linearGradient>
<path class="st6" d="M298.5,511.1L0.9,339.2v155.1L272.3,651l26.3,38.9L298.5,511.1z"/>
<path class="st4" d="M238,528.1c0,12.8,7.6,27.5,16.9,32.9s16.9-0.6,16.9-13.4c0-12.8-7.6-27.5-16.9-32.9
	C245.6,509.3,238,515.3,238,528.1z"/>
<path class="st2" d="M222,504.6L156.8,467v13.6l65.2,37.7V504.6z"/>
<path class="st2" d="M222,531.9L27.3,419.4V433L222,545.5V531.9z"/>
<path class="st2" d="M222,559.2l-152.3-88v13.6l152.3,88V559.2z"/>
<linearGradient id="SVGID_5_" gradientUnits="userSpaceOnUse" x1="679.4352" y1="-131.0975" x2="430.7842" y2="159.0395" gradientTransform="matrix(1 0 0 1 0 154)">
	<stop  offset="0" style="stop-color:#FFFFFF"/>
	<stop  offset="1" style="stop-color:#FFFFFF;stop-opacity:0"/>
</linearGradient>
<path class="st7" d="M738.9,128.3c-168.8-97.5-306.8,18-306.8,260.4L389,363.8C389.1,90,545.2-43.2,738.9,68.6V128.3z"/>
<linearGradient id="SVGID_6_" gradientUnits="userSpaceOnUse" x1="832.6141" y1="0.2945" x2="583.9631" y2="290.4315" gradientTransform="matrix(1 0 0 1 0 154)">
	<stop  offset="0" style="stop-color:#FFFFFF"/>
	<stop  offset="1" style="stop-color:#FFFFFF;stop-opacity:0"/>
</linearGradient>
<path class="st8" d="M598.1,484.7c0-107.6,63-158.5,140.7-113.7v-59.7C637.3,252.7,555,319.2,555,459.8L598.1,484.7z"/>
<linearGradient id="SVGID_7_" gradientUnits="userSpaceOnUse" x1="757.601" y1="-64.9786" x2="508.95" y2="225.1584" gradientTransform="matrix(1 0 0 1 0 154)">
	<stop  offset="0" style="stop-color:#FFFFFF"/>
	<stop  offset="1" style="stop-color:#FFFFFF;stop-opacity:0"/>
</linearGradient>
<path class="st9" d="M514.1,435.1c0-171.8,100.6-253,224.5-181.4V194C590.9,108.7,471,205.5,471,410.2L514.1,435.1z"/>
<linearGradient id="SVGID_8_" gradientUnits="userSpaceOnUse" x1="918.6461" y1="73.8748" x2="669.994" y2="364.0118" gradientTransform="matrix(1 0 0 1 0 154)">
	<stop  offset="0" style="stop-color:#FFFFFF"/>
	<stop  offset="1" style="stop-color:#FFFFFF;stop-opacity:0"/>
</linearGradient>
<path class="st10" d="M697.9,542.2c22.6,13.1,40.9-1.8,40.9-33.1s-18.3-67.3-40.9-80.4c-22.6-13.1-40.9,1.8-40.9,33.1
	C657,493.2,675.3,529.1,697.9,542.2z"/>
<linearGradient id="SVGID_9_" gradientUnits="userSpaceOnUse" x1="719.4348" y1="-160.0969" x2="470.7828" y2="130.0411" gradientTransform="matrix(1 0 0 1 0 154)">
	<stop  offset="0" style="stop-color:#FFFFFF"/>
	<stop  offset="1" style="stop-color:#FFFFFF;stop-opacity:0"/>
</linearGradient>
<path class="st11" d="M778.9,99.3C610,1.8,472.1,117.3,472.1,359.7L429,334.8C429.1,61,585.2-72.2,778.9,39.6V99.3z"/>
<linearGradient id="SVGID_10_" gradientUnits="userSpaceOnUse" x1="872.6131" y1="-28.7044" x2="623.9621" y2="261.4326" gradientTransform="matrix(1 0 0 1 0 154)">
	<stop  offset="0" style="stop-color:#FFFFFF"/>
	<stop  offset="1" style="stop-color:#FFFFFF;stop-opacity:0"/>
</linearGradient>
<path class="st12" d="M638.1,455.7c0-107.6,63-158.5,140.7-113.7v-59.7C677.3,223.7,595,290.2,595,430.8L638.1,455.7z"/>
<linearGradient id="SVGID_11_" gradientUnits="userSpaceOnUse" x1="797.6006" y1="-93.978" x2="548.9496" y2="196.159" gradientTransform="matrix(1 0 0 1 0 154)">
	<stop  offset="0" style="stop-color:#FFFFFF"/>
	<stop  offset="1" style="stop-color:#FFFFFF;stop-opacity:0"/>
</linearGradient>
<path class="st13" d="M554.1,406.1c0-171.8,100.6-253,224.5-181.4V165C630.9,79.7,511,176.5,511,381.2L554.1,406.1z"/>
<linearGradient id="SVGID_12_" gradientUnits="userSpaceOnUse" x1="958.6458" y1="44.8741" x2="709.9948" y2="335.0111" gradientTransform="matrix(1 0 0 1 0 154)">
	<stop  offset="0" style="stop-color:#FFFFFF"/>
	<stop  offset="1" style="stop-color:#FFFFFF;stop-opacity:0"/>
</linearGradient>
<path class="st14" d="M737.9,513.2c22.6,13.1,40.9-1.8,40.9-33.1s-18.3-67.3-40.9-80.4c-22.6-13.1-40.9,1.8-40.9,33.1
	C697,464.2,715.3,500.1,737.9,513.2z"/>
<linearGradient id="SVGID_13_" gradientUnits="userSpaceOnUse" x1="627.8217" y1="553.539" x2="575.4636" y2="594.859" gradientTransform="matrix(1 0 0 1 0 154)">
	<stop  offset="0" style="stop-color:#FFFFFF"/>
	<stop  offset="1" style="stop-color:#FFFFFF;stop-opacity:0"/>
</linearGradient>
<path class="st15" d="M606.9,668.5c6,3.4,10.8,11.8,10.8,18.7v30.5l20.2,11.6c6,3.4,10.8,11.8,10.8,18.8c0,6.9-4.8,9.7-10.8,6.3
	l-20.2-11.6v30.5c0,6.9-4.8,9.7-10.8,6.3s-10.8-11.8-10.8-18.8v-30.5l-20.2-11.6c-6-3.4-10.8-11.8-10.8-18.7s4.8-9.7,10.8-6.3
	l20.2,11.6v-30.5C596.1,667.9,600.9,665.1,606.9,668.5z"/>
<linearGradient id="SVGID_14_" gradientUnits="userSpaceOnUse" x1="150.2254" y1="133.9653" x2="99.505" y2="162.2393" gradientTransform="matrix(1 0 0 1 0 154)">
	<stop  offset="0" style="stop-color:#FFFFFF"/>
	<stop  offset="1" style="stop-color:#FFFFFF;stop-opacity:0"/>
</linearGradient>
<path class="st16" d="M130.4,232.9l27.8,54.6c3.8,7.5,3.2,15-1.4,16.8c-4.6,1.8-11.4-2.9-15.2-10.4l-0.3-0.7v60.6
	c0,6.9-4.8,9.7-10.8,6.3c-6-3.5-10.8-11.8-10.8-18.7v-60.6l-0.3,0.3c-3.8,3.1-10.7-0.1-15.2-7.2c-4.6-7.1-5.2-15.3-1.4-18.4
	L130.4,232.9z"/>
</svg>
