<?xml version="1.0" encoding="utf-8"?>
<!-- Generator: Adobe Illustrator 22.1.0, SVG Export Plug-In . SVG Version: 6.00 Build 0)  -->
<svg version="1.1" id="Слой_1" xmlns="http://www.w3.org/2000/svg" xmlns:xlink="http://www.w3.org/1999/xlink" x="0px" y="0px"
	 viewBox="0 0 732 1034" style="enable-background:new 0 0 732 1034;" xml:space="preserve">
<style type="text/css">
	.st0{opacity:0.5;fill:url(#SVGID_1_);enable-background:new    ;}
	.st1{opacity:0.5;fill:url(#SVGID_2_);enable-background:new    ;}
	.st2{opacity:7.000000e-02;fill:url(#SVGID_3_);enable-background:new    ;}
	.st3{opacity:7.000000e-02;fill:url(#SVGID_4_);enable-background:new    ;}
	.st4{opacity:0.2;fill:url(#SVGID_5_);enable-background:new    ;}
	.st5{fill:#F2994A;}
	.st6{opacity:0.15;fill:#FFFFFF;enable-background:new    ;}
	.st7{opacity:5.000000e-02;fill:url(#SVGID_6_);enable-background:new    ;}
	.st8{opacity:0.3;fill:url(#SVGID_7_);enable-background:new    ;}
	.st9{opacity:5.000000e-02;fill:url(#SVGID_8_);enable-background:new    ;}
	.st10{opacity:0.3;fill:url(#SVGID_9_);enable-background:new    ;}
	.st11{fill:#F2C94C;}
	.st12{opacity:0.3;fill:url(#SVGID_10_);enable-background:new    ;}
	.st13{opacity:0.2;fill:url(#SVGID_11_);enable-background:new    ;}
</style>
<linearGradient id="SVGID_1_" gradientUnits="userSpaceOnUse" x1="-137.7481" y1="39.6965" x2="198.175" y2="284.7424" gradientTransform="matrix(1 0 0 1 0 242)">
	<stop  offset="0" style="stop-color:#FFFFFF"/>
	<stop  offset="1" style="stop-color:#FFFFFF;stop-opacity:0"/>
</linearGradient>
<path class="st0" d="M203.5,360.5c82.7-48.3,151.1-3.1,163.2,101c2.1,18.1-11.6,41.9-28.2,51.6L68.6,670.6
	c-16.6,9.7-30.3,1.9-28.3-18.6C52.4,533.8,120.8,408.7,203.5,360.5z"/>
<linearGradient id="SVGID_2_" gradientUnits="userSpaceOnUse" x1="33.4455" y1="-195.5239" x2="369.3685" y2="49.522" gradientTransform="matrix(1 0 0 1 0 242)">
	<stop  offset="0" style="stop-color:#FFFFFF"/>
	<stop  offset="1" style="stop-color:#FFFFFF;stop-opacity:0"/>
</linearGradient>
<path class="st1" d="M111.3,225.2c0,71.9,41.6,105.9,92.9,75.9c51.3-29.9,92.8-112.5,92.8-184.3c0-71.9-41.6-105.9-92.9-75.9
	C152.8,70.8,111.3,153.4,111.3,225.2z"/>
<linearGradient id="SVGID_3_" gradientUnits="userSpaceOnUse" x1="-177.7476" y1="9.6971" x2="158.1752" y2="254.7425" gradientTransform="matrix(1 0 0 1 0 242)">
	<stop  offset="0" style="stop-color:#FFFFFF"/>
	<stop  offset="1" style="stop-color:#FFFFFF;stop-opacity:0"/>
</linearGradient>
<path class="st2" d="M163.5,330.5c82.7-48.3,151.1-3.1,163.2,101c2.1,18.1-11.6,41.9-28.2,51.6L28.6,640.6
	C12,650.3-1.7,642.5,0.3,622C12.4,503.8,80.8,378.7,163.5,330.5z"/>
<linearGradient id="SVGID_4_" gradientUnits="userSpaceOnUse" x1="-6.5548" y1="-225.524" x2="329.3685" y2="19.5219" gradientTransform="matrix(1 0 0 1 0 242)">
	<stop  offset="0" style="stop-color:#FFFFFF"/>
	<stop  offset="1" style="stop-color:#FFFFFF;stop-opacity:0"/>
</linearGradient>
<path class="st3" d="M71.3,195.2c0,71.9,41.6,105.9,92.9,75.9C215.4,241.2,257,158.7,257,86.8s-41.6-105.9-92.9-75.9
	C112.8,40.8,71.3,123.4,71.3,195.2z"/>
<linearGradient id="SVGID_5_" gradientUnits="userSpaceOnUse" x1="617.7225" y1="113.5704" x2="659.7628" y2="186.4044" gradientTransform="matrix(1 0 0 1 0 242)">
	<stop  offset="0" style="stop-color:#FFFFFF"/>
	<stop  offset="1" style="stop-color:#FFFFFF;stop-opacity:0"/>
</linearGradient>
<path class="st4" d="M545.6,397.2l186.3-107.5v97L545.6,494.3V397.2z"/>
<path class="st5" d="M694,344.1c0,8,4.7,11.7,10.6,8.4c5.8-3.4,10.6-12.6,10.6-20.6s-4.7-11.7-10.6-8.4
	C698.8,326.9,694,336.1,694,344.1z"/>
<path class="st6" d="M684.5,341.1l-60.9,35.1v13.6l60.9-35.1V341.1z"/>
<path class="st6" d="M684.2,368.5l-119.3,68.9V451l119.3-68.9V368.5z"/>
<linearGradient id="SVGID_6_" gradientUnits="userSpaceOnUse" x1="49.4451" y1="320.2916" x2="281.1641" y2="721.7456" gradientTransform="matrix(1 0 0 1 0 242)">
	<stop  offset="0" style="stop-color:#FFFFFF"/>
	<stop  offset="1" style="stop-color:#FFFFFF;stop-opacity:0"/>
</linearGradient>
<path class="st7" d="M251.6,495L64.5,603v402.9l187.1-108V495z"/>
<linearGradient id="SVGID_7_" gradientUnits="userSpaceOnUse" x1="80.6234" y1="589.4541" x2="276.5024" y2="928.8151">
	<stop  offset="0" style="stop-color:#FFFFFF"/>
	<stop  offset="1" style="stop-color:#FFFFFF;stop-opacity:0"/>
</linearGradient>
<path class="st8" d="M95.7,630.2v402.9l187.1-108V522.2L95.7,630.2z M221.5,598.8l-62.6,36.1v-16.1l62.6-36.1V598.8z"/>
<path class="st6" d="M264.8,777.3L114.5,864v13.6l150.3-86.7V777.3z"/>
<path class="st6" d="M254.3,809.9L125,884.5v13.6l129.3-74.6V809.9z"/>
<path class="st5" d="M147.6,743.4c0-31.9,18.7-68.6,41.7-81.9c23-13.3,41.7,1.8,41.7,33.7s-18.7,68.6-41.7,81.9
	C166.3,790.4,147.6,775.3,147.6,743.4z"/>
<linearGradient id="SVGID_8_" gradientUnits="userSpaceOnUse" x1="282.4393" y1="-4.0192" x2="514.1573" y2="397.4348" gradientTransform="matrix(1 0 0 1 0 242)">
	<stop  offset="0" style="stop-color:#FFFFFF"/>
	<stop  offset="1" style="stop-color:#FFFFFF;stop-opacity:0"/>
</linearGradient>
<path class="st9" d="M484.6,170.7l-187.1,108v402.9l187.1-108V170.7z"/>
<linearGradient id="SVGID_9_" gradientUnits="userSpaceOnUse" x1="313.6172" y1="265.1432" x2="509.4962" y2="604.5042">
	<stop  offset="0" style="stop-color:#FFFFFF"/>
	<stop  offset="1" style="stop-color:#FFFFFF;stop-opacity:0"/>
</linearGradient>
<path class="st10" d="M328.7,305.9l0,402.9l187.1-108V197.9L328.7,305.9z M454.5,274.4l-62.6,36.1v-16.1l62.6-36.1V274.4z"/>
<path class="st6" d="M497.8,452.9l-150.3,86.7v13.6l150.3-86.7V452.9z"/>
<path class="st6" d="M487.3,485.6L358,560.2v13.6l129.3-74.6V485.6z"/>
<path class="st11" d="M380.6,419.1c0-31.9,18.7-68.6,41.7-81.9S464,339,464,370.9s-18.7,68.6-41.7,81.9
	C399.3,466.1,380.6,451,380.6,419.1z"/>
<linearGradient id="SVGID_10_" gradientUnits="userSpaceOnUse" x1="445.4818" y1="339.6725" x2="599.1317" y2="459.9765" gradientTransform="matrix(1 0 0 1 0 242)">
	<stop  offset="0" style="stop-color:#FFFFFF"/>
	<stop  offset="1" style="stop-color:#FFFFFF;stop-opacity:0"/>
</linearGradient>
<path class="st12" d="M380.6,643.8L678.1,472L678,627.1L406.8,783.7l-26.3,38.9L380.6,643.8z"/>
<path class="st5" d="M709.9,532.5v-42.1l-112.3,64.8v42.1L709.9,532.5z"/>
<path class="st6" d="M457.1,637.4l65.2-37.6v13.6L457.1,651V637.4z"/>
<path class="st6" d="M457.1,664.7l125.7-72.5v13.6l-125.7,72.5L457.1,664.7z"/>
<path class="st6" d="M457,691.9L609.3,604v13.6l-152.3,88V691.9z"/>
<path class="st5" d="M441,660.9c0,12.8-7.6,27.5-16.9,32.9s-16.9-0.6-16.9-13.4c0-12.8,7.6-27.5,16.9-32.9
	C433.5,642.1,441,648.1,441,660.9z"/>
<linearGradient id="SVGID_11_" gradientUnits="userSpaceOnUse" x1="592.9888" y1="-24.6028" x2="645.3467" y2="16.7172" gradientTransform="matrix(1 0 0 1 0 242)">
	<stop  offset="0" style="stop-color:#FFFFFF"/>
	<stop  offset="1" style="stop-color:#FFFFFF;stop-opacity:0"/>
</linearGradient>
<path class="st13" d="M613.9,178.4c-6,3.4-10.8,11.8-10.8,18.7v30.5l-20.2,11.6c-6,3.4-10.8,11.8-10.8,18.7s4.8,9.7,10.8,6.3
	l20.2-11.6v30.5c0,6.9,4.8,9.7,10.8,6.3c6-3.4,10.8-11.8,10.8-18.7v-30.5l20.2-11.6c6-3.4,10.8-11.8,10.8-18.7s-4.8-9.7-10.8-6.3
	l-20.2,11.6v-30.5C624.7,177.8,619.9,175,613.9,178.4z"/>
</svg>
