<?xml version="1.0" encoding="utf-8"?>
<!-- Generator: Adobe Illustrator 22.1.0, SVG Export Plug-In . SVG Version: 6.00 Build 0)  -->
<svg version="1.1" id="Слой_1" xmlns="http://www.w3.org/2000/svg" xmlns:xlink="http://www.w3.org/1999/xlink" x="0px" y="0px"
	 viewBox="0 0 612 953" style="enable-background:new 0 0 612 953;" xml:space="preserve">
<style type="text/css">
	.st0{opacity:0.2;fill:url(#SVGID_1_);enable-background:new    ;}
	.st1{opacity:0.4;fill:#FFFFFF;enable-background:new    ;}
	.st2{opacity:0.3;fill:url(#SVGID_2_);enable-background:new    ;}
	.st3{opacity:0.3;fill:url(#SVGID_3_);enable-background:new    ;}
	.st4{opacity:0.3;fill:url(#SVGID_4_);enable-background:new    ;}
	.st5{fill:#F2C94C;}
	.st6{opacity:0.3;fill:url(#SVGID_5_);enable-background:new    ;}
	.st7{fill:#F2994A;}
	.st8{opacity:0.3;fill:url(#SVGID_6_);enable-background:new    ;}
	.st9{opacity:0.3;fill:url(#SVGID_7_);enable-background:new    ;}
	.st10{opacity:0.3;fill:url(#SVGID_8_);enable-background:new    ;}
	.st11{opacity:0.15;fill:#FFFFFF;enable-background:new    ;}
	.st12{opacity:0.2;fill:#FFFFFF;enable-background:new    ;}
	.st13{opacity:0.2;fill:url(#SVGID_9_);enable-background:new    ;}
	.st14{opacity:0.2;fill:url(#SVGID_10_);enable-background:new    ;}
</style>
<linearGradient id="SVGID_1_" gradientUnits="userSpaceOnUse" x1="244.8396" y1="485.2097" x2="273.7846" y2="320.3797" gradientTransform="matrix(1 0 0 -1 0 954)">
	<stop  offset="0" style="stop-color:#FFFFFF"/>
	<stop  offset="1" style="stop-color:#FFFFFF;stop-opacity:0"/>
</linearGradient>
<path class="st0" d="M193.7,579c0,49,28.7,72.2,64,51.8c35.4-20.4,64-76.7,64-125.7c0-49-28.7-72.2-64-51.8
	C222.3,473.7,193.6,530,193.7,579z"/>
<path class="st1" d="M288.4,650.8c-35.4,20.4-64-2.8-64.1-51.8c0-49,28.7-105.3,64-125.7c35.4-20.4,64,2.8,64,51.8
	C352.4,574.1,323.7,630.4,288.4,650.8z M299.4,510.7l-12.3,7.1l0,11.9c-1.2,0.8-2.4,1.6-3.6,2.4c-3.1,2.1-6,4.3-8.7,6.5l0,77.2
	c3.4-0.9,6.6-2.2,9.7-3.8c0.9-0.4,1.7-0.8,2.6-1.3l0,11.9l12.3-7.1l0-12c6-4.2,10.7-8.9,14.1-14.1c4.4-6.8,6.6-14.3,6.6-22.7
	c0-4.1-0.7-7.5-2-10c-1.3-2.5-3.8-3.7-7.4-3.5c4.4-6.2,6.6-12.5,6.6-18.9c0-4.2-0.6-7.4-1.9-9.5c-1.2-2.2-2.9-3.6-5.1-4
	s-4.9-0.2-7.9,0.9c-0.9,0.3-1.9,0.7-2.9,1.1L299.4,510.7z"/>
<path class="st1" d="M294.2,558.1l-6.3,3.6l0-17.3c1-0.7,2.1-1.5,3.4-2.2c1.3-0.8,2.5-1.5,3.6-2.2c3.4-2,6-2.8,7.8-2.5
	c1.8,0.3,2.6,2,2.6,5.2c0,3.1-0.9,5.9-2.6,8.4C301,553.5,298.2,555.8,294.2,558.1z"/>
<path class="st1" d="M287.9,595.8l0-20.6l8.1-4.7c3.7-2.1,6.5-3,8.5-2.5c2,0.4,3,2.4,3,6.1c0,4.1-1.2,7.7-3.6,10.6
	c-2.4,2.9-5.5,5.5-9.4,7.7c-1.3,0.8-2.5,1.4-3.6,2C289.9,594.9,288.9,595.4,287.9,595.8z"/>
<linearGradient id="SVGID_2_" gradientUnits="userSpaceOnUse" x1="261.8215" y1="873.3952" x2="425.9105" y2="589.1108" gradientTransform="matrix(1 0 0 -1 0 954)">
	<stop  offset="0" style="stop-color:#FFFFFF"/>
	<stop  offset="1" style="stop-color:#FFFFFF;stop-opacity:0"/>
</linearGradient>
<path class="st2" d="M375.4,2c-6.3,3.6-11.3,12.4-11.3,19.6l0,193.2l-57.3,33.1l0,199.3c0,7.2,5.1,10.1,11.3,6.5
	c6.3-3.6,11.3-12.4,11.3-19.6l0-173.2l57.3-33.1l0-219.4C386.8,1.3,381.7-1.7,375.4,2z"/>
<linearGradient id="SVGID_3_" gradientUnits="userSpaceOnUse" x1="380.4949" y1="146.8588" x2="276.7689" y2="326.5638" gradientTransform="matrix(1 0 0 -1 0 954)">
	<stop  offset="0" style="stop-color:#FFFFFF"/>
	<stop  offset="1" style="stop-color:#FFFFFF;stop-opacity:0"/>
</linearGradient>
<path class="st3" d="M344.2,841.2c-6.3,3.6-11.3,0.7-11.3-6.5l0-144.8L275.5,723l0-94.8c0-7.2,5.1-16,11.3-19.6
	c6.3-3.6,11.3-0.7,11.3,6.5l0,68.7l57.3-33.1l0,170.9C355.5,828.8,350.4,837.6,344.2,841.2z"/>
<linearGradient id="SVGID_4_" gradientUnits="userSpaceOnUse" x1="184.9473" y1="756.1429" x2="327.2733" y2="509.56" gradientTransform="matrix(1 0 0 -1 0 954)">
	<stop  offset="0" style="stop-color:#FFFFFF"/>
	<stop  offset="1" style="stop-color:#FFFFFF;stop-opacity:0"/>
</linearGradient>
<path class="st4" d="M256.1,143.7c-6.3,3.6-11.3,12.4-11.3,19.6l0,328.7c0,7.2,5.1,10.1,11.3,6.5c6.3-3.6,11.3-12.4,11.3-19.6
	l0-328.7C267.4,143,262.3,140.1,256.1,143.7z"/>
<path class="st5" d="M320.3,824.6c0,19.8,11.6,29.2,25.9,20.9c14.3-8.2,25.9-31,25.9-50.8c0-19.8-11.6-29.2-25.9-20.9
	C331.9,782.1,320.3,804.8,320.3,824.6z"/>
<linearGradient id="SVGID_5_" gradientUnits="userSpaceOnUse" x1="69.3279" y1="693.007" x2="204.9089" y2="458.114" gradientTransform="matrix(1 0 0 -1 0 954)">
	<stop  offset="0" style="stop-color:#FFFFFF"/>
	<stop  offset="1" style="stop-color:#FFFFFF;stop-opacity:0"/>
</linearGradient>
<path class="st6" d="M130,308.6c6.3-3.6,11.3-0.7,11.3,6.5l0,97.6l57.3-33.1l0,119.9c0,7.2-5.1,16-11.3,19.6
	c-6.3,3.6-11.3,0.7-11.3-6.5l0-93.8l-57.3,33.1l0-123.7C118.7,321,123.7,312.2,130,308.6z"/>
<path class="st7" d="M104.6,343c0,19.6,11.5,28.8,25.6,20.7c14.1-8.2,25.6-30.6,25.6-50.2c0-19.6-11.5-28.8-25.6-20.7
	S104.6,323.5,104.6,343z"/>
<linearGradient id="SVGID_6_" gradientUnits="userSpaceOnUse" x1="-16.909" y1="206.7468" x2="209.1032" y2="206.7718" gradientTransform="matrix(1 0 0 -1 0 954)">
	<stop  offset="0" style="stop-color:#FFFFFF"/>
	<stop  offset="1" style="stop-color:#FFFFFF;stop-opacity:0"/>
</linearGradient>
<path class="st8" d="M20.3,842.2c0-7.2,5.1-16,11.3-19.6l89-51.4l0-74.5l88.4-51c6.3-3.6,11.3-0.7,11.3,6.5c0,7.2-5.1,16-11.3,19.6
	l-65.8,38l0,74.5L31.7,848.8C25.4,852.4,20.3,849.4,20.3,842.2z"/>
<linearGradient id="SVGID_7_" gradientUnits="userSpaceOnUse" x1="286.5631" y1="46.0818" x2="183.7721" y2="223.9188" gradientTransform="matrix(1 0 0 -1 0 954)">
	<stop  offset="0" style="stop-color:#FFFFFF"/>
	<stop  offset="1" style="stop-color:#FFFFFF;stop-opacity:0"/>
</linearGradient>
<path class="st9" d="M235.2,950.7c6.3-3.6,11.3-12.4,11.3-19.6l0-237c0-7.2-5.1-10.1-11.3-6.5c-6.3,3.6-11.3,12.4-11.3,19.6l0,237
	C223.9,951.3,229,954.3,235.2,950.7z"/>
<path class="st7" d="M6.6,850.8c0,19.8,11.6,29.2,25.9,20.9c14.3-8.2,25.9-31,25.9-50.8c0-19.8-11.6-29.2-25.9-20.9
	C18.2,808.3,6.6,831,6.6,850.8z"/>
<linearGradient id="SVGID_8_" gradientUnits="userSpaceOnUse" x1="380.297" y1="474.3907" x2="524.826" y2="223.9956" gradientTransform="matrix(1 0 0 -1 0 954)">
	<stop  offset="0" style="stop-color:#FFFFFF"/>
	<stop  offset="1" style="stop-color:#FFFFFF;stop-opacity:0"/>
</linearGradient>
<path class="st10" d="M560.5,453.1l-162.8,94l0,301.6l162.8-94L560.5,453.1z"/>
<path class="st11" d="M534.7,644.8l-97,56l0,11.9l97-56L534.7,644.8z"/>
<path class="st11" d="M524.6,674.2l-76.9,44.4l0,11.9l76.9-44.4L524.6,674.2z"/>
<path class="st5" d="M498.3,727.8l113.3-65.4l0,33.7l-113.3,65.4L498.3,727.8z"/>
<path class="st12" d="M443.8,577.2l25.3,20l17-21.8l22.2,19.2l8.8-6.4l-32.7-27.5l-16.6,21.8l-18.3-13.6L443.8,577.2z"/>
<path class="st5" d="M424.8,576.7c0,11.3,6.6,16.6,14.7,11.9c8.1-4.7,14.7-17.6,14.7-28.9c0-11.3-6.6-16.6-14.7-11.9
	C431.4,552.5,424.8,565.4,424.8,576.7z"/>
<path class="st5" d="M500.6,598.5c0,11.3,6.6,16.6,14.7,11.9c8.1-4.7,14.7-17.6,14.7-28.9c0-11.3-6.6-16.6-14.7-11.9
	C507.2,574.3,500.6,587.2,500.6,598.5z"/>
<linearGradient id="SVGID_9_" gradientUnits="userSpaceOnUse" x1="60.9018" y1="338.3193" x2="95.8194" y2="277.8236" gradientTransform="matrix(1 0 0 -1 0 954)">
	<stop  offset="0" style="stop-color:#FFFFFF"/>
	<stop  offset="1" style="stop-color:#FFFFFF;stop-opacity:0"/>
</linearGradient>
<path class="st13" d="M1,650.3l154.8-89.4l0,80.6L1,730.9L1,650.3z"/>
<path class="st11" d="M116.2,603.2l-46.6,26.9l0,9.7l46.6-26.9L116.2,603.2z"/>
<path class="st11" d="M116.1,622.7l-99.2,57.2l0,9.8l99.2-57.2L116.1,622.7z"/>
<path class="st7" d="M124.3,606.1c0,6.6,3.9,9.8,8.8,7c4.9-2.8,8.8-10.5,8.8-17.1c0-6.6-3.9-9.8-8.8-7
	C128.2,591.8,124.3,599.5,124.3,606.1z"/>
<linearGradient id="SVGID_10_" gradientUnits="userSpaceOnUse" x1="458.1355" y1="584.8474" x2="493.0539" y2="524.3518" gradientTransform="matrix(1 0 0 -1 0 954)">
	<stop  offset="0" style="stop-color:#FFFFFF"/>
	<stop  offset="1" style="stop-color:#FFFFFF;stop-opacity:0"/>
</linearGradient>
<path class="st14" d="M398.2,403.8L553,314.4l0,80.6l-154.8,89.4L398.2,403.8z"/>
<path class="st11" d="M513.4,356.7l-46.6,26.9l0,9.7l46.6-26.9L513.4,356.7z"/>
<path class="st11" d="M513.3,376.2l-99.2,57.2l0,9.8l99.2-57.2L513.3,376.2z"/>
<path class="st7" d="M521.5,359.6c0,6.6,3.9,9.8,8.8,7c4.9-2.8,8.8-10.5,8.8-17.1c0-6.6-3.9-9.8-8.8-7
	C525.5,345.3,521.5,352.9,521.5,359.6z"/>
</svg>
