<?xml version="1.0" encoding="utf-8"?>
<!-- Generator: Adobe Illustrator 22.1.0, SVG Export Plug-In . SVG Version: 6.00 Build 0)  -->
<svg version="1.1" id="Слой_1" xmlns="http://www.w3.org/2000/svg" xmlns:xlink="http://www.w3.org/1999/xlink" x="0px" y="0px"
	 viewBox="0 0 719 927" style="enable-background:new 0 0 719 927;" xml:space="preserve">
<style type="text/css">
	.st0{opacity:0.5;fill:url(#SVGID_1_);enable-background:new    ;}
	.st1{opacity:0.5;fill:url(#SVGID_2_);enable-background:new    ;}
	.st2{opacity:7.000000e-02;fill:url(#SVGID_3_);enable-background:new    ;}
	.st3{opacity:7.000000e-02;fill:url(#SVGID_4_);enable-background:new    ;}
	.st4{opacity:0.2;fill:url(#SVGID_5_);enable-background:new    ;}
	.st5{fill:#F2C94C;}
	.st6{opacity:0.15;fill:#FFFFFF;enable-background:new    ;}
	.st7{opacity:0.2;fill:url(#SVGID_6_);enable-background:new    ;}
	.st8{fill:#F2994A;}
	.st9{opacity:0.3;fill:url(#SVGID_7_);enable-background:new    ;}
	.st10{opacity:0.3;fill:url(#SVGID_8_);enable-background:new    ;}
	.st11{opacity:0.2;fill:url(#SVGID_9_);enable-background:new    ;}
	.st12{opacity:0.2;fill:url(#SVGID_10_);enable-background:new    ;}
	.st13{opacity:0.2;fill:#FFFFFF;enable-background:new    ;}
</style>
<linearGradient id="SVGID_1_" gradientUnits="userSpaceOnUse" x1="641.7492" y1="703.0847" x2="386.3042" y2="516.7457" gradientTransform="matrix(1 0 0 -1 0 928)">
	<stop  offset="0" style="stop-color:#FFFFFF"/>
	<stop  offset="1" style="stop-color:#FFFFFF;stop-opacity:0"/>
</linearGradient>
<path class="st0" d="M382.3,284.8c-62.9-36.7-114.9-2.4-124.1,76.8c-1.6,13.7,8.8,31.8,21.5,39.2l205.2,119.8
	c12.7,7.4,23.1,1.4,21.5-14.2C497.2,416.7,445.1,321.5,382.3,284.8z"/>
<linearGradient id="SVGID_2_" gradientUnits="userSpaceOnUse" x1="511.588" y1="881.9267" x2="256.144" y2="695.5874" gradientTransform="matrix(1 0 0 -1 0 928)">
	<stop  offset="0" style="stop-color:#FFFFFF"/>
	<stop  offset="1" style="stop-color:#FFFFFF;stop-opacity:0"/>
</linearGradient>
<path class="st1" d="M452.4,182c0,54.7-31.6,80.5-70.6,57.7s-70.6-85.5-70.6-140.2s31.6-80.5,70.6-57.7S452.4,127.3,452.4,182z"/>
<linearGradient id="SVGID_3_" gradientUnits="userSpaceOnUse" x1="682.166" y1="735.897" x2="426.721" y2="549.558" gradientTransform="matrix(1 0 0 -1 0 928)">
	<stop  offset="0" style="stop-color:#FFFFFF"/>
	<stop  offset="1" style="stop-color:#FFFFFF;stop-opacity:0"/>
</linearGradient>
<path class="st2" d="M422.7,252c-62.9-36.7-114.9-2.4-124.1,76.8c-1.6,13.7,8.8,31.8,21.5,39.2l205.2,119.8
	c12.7,7.4,23.1,1.4,21.5-14.2C537.6,383.9,485.6,288.7,422.7,252z"/>
<linearGradient id="SVGID_4_" gradientUnits="userSpaceOnUse" x1="552.0051" y1="914.739" x2="296.5611" y2="728.4002" gradientTransform="matrix(1 0 0 -1 0 928)">
	<stop  offset="0" style="stop-color:#FFFFFF"/>
	<stop  offset="1" style="stop-color:#FFFFFF;stop-opacity:0"/>
</linearGradient>
<path class="st3" d="M492.8,149.2c0,54.7-31.6,80.5-70.6,57.7s-70.6-85.5-70.6-140.2c0-54.7,31.6-80.5,70.6-57.7
	C461.2,31.8,492.8,94.5,492.8,149.2z"/>
<linearGradient id="SVGID_5_" gradientUnits="userSpaceOnUse" x1="559.903" y1="406.8425" x2="519.7971" y2="337.3575" gradientTransform="matrix(1 0 0 -1 0 928)">
	<stop  offset="0" style="stop-color:#FFFFFF"/>
	<stop  offset="1" style="stop-color:#FFFFFF;stop-opacity:0"/>
</linearGradient>
<path class="st4" d="M628.7,560.9L451,458.3v92.6l177.7,102.6V560.9z"/>
<path class="st5" d="M487.1,510.2c0,7.6-4.5,11.2-10.1,8s-10.1-12-10.1-19.6s4.5-11.2,10.1-8C482.6,493.8,487.1,502.6,487.1,510.2z"
	/>
<path class="st6" d="M496.5,506.9l53.4,30.9v11.1L496.4,518L496.5,506.9z"/>
<path class="st6" d="M496.5,529.2l113.8,65.7v11.3l-113.8-65.7V529.2z"/>
<linearGradient id="SVGID_6_" gradientUnits="userSpaceOnUse" x1="198.9317" y1="513.7923" x2="158.8477" y2="444.3453" gradientTransform="matrix(1 0 0 -1 0 928)">
	<stop  offset="0" style="stop-color:#FFFFFF"/>
	<stop  offset="1" style="stop-color:#FFFFFF;stop-opacity:0"/>
</linearGradient>
<path class="st7" d="M267.7,453.9L90,351.4V444l177.7,102.6V453.9z"/>
<path class="st8" d="M126.1,403.2c0,7.6-4.5,11.2-10.1,8c-5.6-3.2-10.1-12-10.1-19.6s4.5-11.2,10.1-8
	C121.6,386.8,126.1,395.6,126.1,403.2z"/>
<path class="st6" d="M135.2,400.4l32.2,18.6v11.3l-32.2-18.6V400.4z"/>
<path class="st6" d="M135.5,422.7l113.8,65.7v11.3L135.5,434V422.7z"/>
<linearGradient id="SVGID_7_" gradientUnits="userSpaceOnUse" x1="526.843" y1="365.9897" x2="570.3769" y2="12.8927" gradientTransform="matrix(1 0 0 -1 0 928)">
	<stop  offset="0" style="stop-color:#FFFFFF"/>
	<stop  offset="1" style="stop-color:#FFFFFF;stop-opacity:0"/>
</linearGradient>
<path class="st9" d="M382.2,556.3l336.7,194.4l0.1,175.5L412,749l-29.7,9.7L382.2,556.3z"/>
<path class="st5" d="M450.6,654.6c0,14.5-8.5,21.2-19.1,15.1c-10.6-6.1-19.1-22.8-19.1-37.2c0-14.5,8.5-21.2,19.1-15.1
	C442,623.5,450.6,640.2,450.6,654.6z"/>
<path class="st6" d="M468.8,649l73.8,42.6V707l-73.8-42.6V649z"/>
<path class="st6" d="M468.8,679.9l220.4,127.2v15.4L468.8,695.3V679.9z"/>
<path class="st6" d="M468.8,710.8l172.3,99.5v15.4l-172.3-99.5V710.8z"/>
<linearGradient id="SVGID_8_" gradientUnits="userSpaceOnUse" x1="263.3003" y1="391.5544" x2="89.4272" y2="255.4164" gradientTransform="matrix(1 0 0 -1 0 928)">
	<stop  offset="0" style="stop-color:#FFFFFF"/>
	<stop  offset="1" style="stop-color:#FFFFFF;stop-opacity:0"/>
</linearGradient>
<path class="st10" d="M336.7,606.7L0,412.4l0.1,175.5l307,177.2l29.7,44L336.7,606.7z"/>
<path class="st8" d="M268.3,626c0,14.5,8.6,31.1,19.1,37.2c10.6,6.1,19.1-0.7,19.1-15.2s-8.6-31.1-19.1-37.2
	C276.9,604.8,268.3,611.6,268.3,626z"/>
<path class="st6" d="M250.1,599.5l-73.8-42.6v15.4l73.8,42.6V599.5z"/>
<path class="st6" d="M250.2,630.3L29.8,503.1v15.4l220.3,127.2L250.2,630.3z"/>
<path class="st6" d="M250.2,661.2L77.9,561.7v15.4l172.3,99.5V661.2z"/>
<linearGradient id="SVGID_9_" gradientUnits="userSpaceOnUse" x1="161.0712" y1="173.0244" x2="108.7132" y2="131.7044" gradientTransform="matrix(1 0 0 -1 0 928)">
	<stop  offset="0" style="stop-color:#FFFFFF"/>
	<stop  offset="1" style="stop-color:#FFFFFF;stop-opacity:0"/>
</linearGradient>
<path class="st11" d="M140.2,716c6,3.4,10.8,11.8,10.8,18.8v30.5l20.2,11.6c6,3.4,10.8,11.8,10.8,18.7c0,6.9-4.8,9.7-10.8,6.3
	L151,790.2v30.5c0,6.9-4.8,9.7-10.8,6.3s-10.8-11.8-10.8-18.7v-30.5l-20.2-11.6c-6-3.4-10.8-11.8-10.8-18.7s4.8-9.7,10.8-6.3
	l20.2,11.6v-30.5C129.3,715.3,134.2,712.5,140.2,716z"/>
<linearGradient id="SVGID_10_" gradientUnits="userSpaceOnUse" x1="594.47" y1="547.6038" x2="543.749" y2="519.3298" gradientTransform="matrix(1 0 0 -1 0 928)">
	<stop  offset="0" style="stop-color:#FFFFFF"/>
	<stop  offset="1" style="stop-color:#FFFFFF;stop-opacity:0"/>
</linearGradient>
<path class="st12" d="M574.7,325.3l27.8,54.6c3.8,7.5,3.2,15-1.4,16.8c-4.6,1.8-11.4-2.9-15.2-10.4l-0.3-0.7v60.6
	c0,6.9-4.8,9.7-10.8,6.3c-6-3.5-10.8-11.8-10.8-18.7v-60.6l-0.3,0.3c-3.8,3.1-10.7-0.1-15.2-7.2c-4.6-7.1-5.2-15.3-1.4-18.4
	L574.7,325.3z"/>
<path class="st13" d="M336.7,422.9l-42.8-24.7v-14.4l42.8,24.7c3.5,2,8.6,6.1,12.9,12.4c4.7,6.7,8,15.2,8,24.4
	c0,10.2-2.6,16-7.5,17.6c-4.6,1.5-10.1-1.1-13.4-3l-17.6-10.2l-0.1-0.1c-1.5-0.9-3.9-1.8-5.8-1.2c-1.6,0.5-3.3,2-3.3,7.7
	c0,5.7,1.8,9.1,3.2,11.2c1.8,2.6,4.2,4.4,5.7,5.2l0.2,0.1l53.8,31.1v14.4l-53.5-30.9c-3.7-1.9-9-6-13.6-12.4c-5-7.1-8.4-16-8.4-25.9
	s3.4-14.9,8.3-16.3c4.6-1.3,9.9,0.6,13.6,2.8l17.4,10.1c2.5,1.5,4.4,2.1,5.7,1.7c1-0.3,2.8-1.7,2.8-9c0-4.8-1.5-7.9-3-9.9
	C340.4,425.6,338.2,423.7,336.7,422.9z"/>
<path class="st8" d="M301.8,395.1c0,12.9-7.6,19-16.9,13.7c-9.3-5.4-16.9-20.2-16.9-33.2c0-12.9,7.6-19,16.9-13.7
	C294.2,367.3,301.8,382.2,301.8,395.1z"/>
<path class="st5" d="M394.8,523.1c0,12.9-7.6,19-16.9,13.7c-9.3-5.4-16.9-20.2-16.9-33.2c0-12.9,7.6-19,16.9-13.7
	C387.2,495.3,394.8,510.2,394.8,523.1z"/>
</svg>
