<?xml version="1.0" encoding="utf-8"?>
<!-- Generator: Adobe Illustrator 22.1.0, SVG Export Plug-In . SVG Version: 6.00 Build 0)  -->
<svg version="1.1" id="Слой_1" xmlns="http://www.w3.org/2000/svg" xmlns:xlink="http://www.w3.org/1999/xlink" x="0px" y="0px"
	 viewBox="0 0 846 754" style="enable-background:new 0 0 846 754;" xml:space="preserve">
<style type="text/css">
	.st0{opacity:0.1;fill:url(#SVGID_1_);enable-background:new    ;}
	.st1{opacity:0.4;fill:url(#SVGID_2_);enable-background:new    ;}
	.st2{opacity:0.3;fill:url(#SVGID_3_);enable-background:new    ;}
	.st3{fill:#F2C94C;}
	.st4{opacity:0.15;fill:#FFFFFF;enable-background:new    ;}
	.st5{opacity:0.3;fill:url(#SVGID_4_);enable-background:new    ;}
	.st6{fill:#F2994A;}
	.st7{opacity:0.2;fill:url(#SVGID_5_);enable-background:new    ;}
	.st8{opacity:0.2;fill:url(#SVGID_6_);enable-background:new    ;}
	.st9{opacity:0.2;fill:url(#SVGID_7_);enable-background:new    ;}
</style>
<linearGradient id="SVGID_1_" gradientUnits="userSpaceOnUse" x1="161.6566" y1="607.7511" x2="365.2666" y2="255.3023" gradientTransform="matrix(1 0 0 -1 0 756)">
	<stop  offset="0" style="stop-color:#FFFFFF"/>
	<stop  offset="1" style="stop-color:#FFFFFF;stop-opacity:0"/>
</linearGradient>
<path class="st0" d="M451.3,6.1L53.7,604.9l397.6-229.7L451.3,6.1z"/>
<linearGradient id="SVGID_2_" gradientUnits="userSpaceOnUse" x1="183.4215" y1="601.4323" x2="389.6145" y2="244.73" gradientTransform="matrix(1 0 0 -1 0 756)">
	<stop  offset="0" style="stop-color:#FFFFFF"/>
	<stop  offset="0.8963" style="stop-color:#FFFFFF;stop-opacity:0"/>
</linearGradient>
<path class="st1" d="M71.7,646.6c-4.1,2.4-5.9-2.5-2.7-7.3l420.5-633c2.8-4.3,7-4.4,7-0.2l-0.1,390.2c0,2.8-1.9,6.1-4.3,7.5
	L71.7,646.6z M434.3,186.4c0-4.2-4.2-4.1-7,0.2L242.8,463.8c-3.2,4.8-1.4,9.7,2.7,7.3l184.4-106.5c2.4-1.4,4.3-4.7,4.3-7.5
	L434.3,186.4z"/>
<linearGradient id="SVGID_3_" gradientUnits="userSpaceOnUse" x1="169.9683" y1="731.7299" x2="131.6933" y2="419.7065" gradientTransform="matrix(1 0 0 -1 0 756)">
	<stop  offset="0" style="stop-color:#FFFFFF"/>
	<stop  offset="1" style="stop-color:#FFFFFF;stop-opacity:0"/>
</linearGradient>
<path class="st2" d="M297.9,19.2L0.3,191.1l0,155.1l271.3-156.7l26.2,8.6L297.9,19.2z"/>
<path class="st3" d="M237.4,106.1c0,12.8,7.6,18.8,16.9,13.4c9.3-5.4,16.9-20.1,16.9-32.9c0-12.8-7.6-18.8-16.9-13.4
	C245,78.6,237.4,93.3,237.4,106.1z"/>
<path class="st4" d="M221.4,101.1l-65.2,37.7l0,13.6l65.2-37.7L221.4,101.1z"/>
<path class="st4" d="M221.4,128.4L26.6,240.9l0,13.6L221.4,142L221.4,128.4z"/>
<path class="st4" d="M221.4,155.7l-152.3,88l0,13.6l152.3-88L221.4,155.7z"/>
<linearGradient id="SVGID_4_" gradientUnits="userSpaceOnUse" x1="612.6133" y1="416.7531" x2="766.2733" y2="296.5011" gradientTransform="matrix(1 0 0 -1 0 756)">
	<stop  offset="0" style="stop-color:#FFFFFF"/>
	<stop  offset="1" style="stop-color:#FFFFFF;stop-opacity:0"/>
</linearGradient>
<path class="st5" d="M547.7,401.4l297.6-171.9l0,155.1L573.9,541.3l-26.3,38.9L547.7,401.4z"/>
<path class="st6" d="M608.2,418.4c0,12.8-7.6,27.5-16.9,32.9c-9.3,5.4-16.9-0.6-16.9-13.4c0-12.8,7.6-27.5,16.9-32.9
	C600.6,399.7,608.2,405.7,608.2,418.4z"/>
<path class="st4" d="M624.2,395l65.2-37.7l0,13.6l-65.2,37.7L624.2,395z"/>
<path class="st4" d="M624.2,422.2l194.7-112.5l0,13.6L624.2,435.9L624.2,422.2z"/>
<path class="st4" d="M624.2,449.5l152.3-88l0,13.6l-152.3,88L624.2,449.5z"/>
<linearGradient id="SVGID_5_" gradientUnits="userSpaceOnUse" x1="533.0917" y1="686.0902" x2="640.5367" y2="500.1033" gradientTransform="matrix(1 0 0 -1 0 756)">
	<stop  offset="0" style="stop-color:#FFFFFF"/>
	<stop  offset="1" style="stop-color:#FFFFFF;stop-opacity:0"/>
</linearGradient>
<path class="st7" d="M653.6,0.3L529.3,72.1l-0.1,269.3l124.3-71.8L653.6,0.3z"/>
<path class="st6" d="M692.4,74.2l-97.8,56.5l0,32.3l97.8-56.5L692.4,74.2z"/>
<path class="st4" d="M653.5,229.6l-124.3,71.8l0,39.9l124.3-71.8L653.5,229.6z"/>
<path class="st4" d="M638.2,49.2l-51,29.4l0,13.6l51-29.4L638.2,49.2z"/>
<path class="st4" d="M638.2,76.5L548,128.6l0,13.6l90.2-52.1L638.2,76.5z"/>
<path class="st4" d="M585.3,225.5l0,13.6l52.9-30.6l0-13.6L585.3,225.5z"/>
<linearGradient id="SVGID_6_" gradientUnits="userSpaceOnUse" x1="394.726" y1="273.9856" x2="502.171" y2="87.9996" gradientTransform="matrix(1 0 0 -1 0 756)">
	<stop  offset="0" style="stop-color:#FFFFFF"/>
	<stop  offset="1" style="stop-color:#FFFFFF;stop-opacity:0"/>
</linearGradient>
<path class="st8" d="M391,484.2l124.3-71.8l-0.1,269.3l-124.3,71.8L391,484.2z"/>
<path class="st3" d="M352,603l97.8-56.5l0,32.3L352,635.3L352,603z"/>
<path class="st4" d="M390.9,713.5l124.3-71.8l0,39.9l-124.3,71.8L390.9,713.5z"/>
<path class="st4" d="M496.5,463.3l-51,29.4l0,13.6l51-29.4L496.5,463.3z"/>
<path class="st4" d="M496.5,490.6l-90.2,52.1l0,13.6l90.2-52.1L496.5,490.6z"/>
<path class="st4" d="M459.2,630.6l0,13.6l-52.9,30.6l0-13.6L459.2,630.6z"/>
<linearGradient id="SVGID_7_" gradientUnits="userSpaceOnUse" x1="116.3805" y1="404.1327" x2="168.7375" y2="362.8127" gradientTransform="matrix(1 0 0 -1 0 756)">
	<stop  offset="0" style="stop-color:#FFFFFF"/>
	<stop  offset="1" style="stop-color:#FFFFFF;stop-opacity:0"/>
</linearGradient>
<path class="st9" d="M137.3,312.9c-6,3.4-10.8,11.8-10.8,18.7l0,30.5l-20.2,11.6c-6,3.4-10.8,11.8-10.8,18.7c0,6.9,4.8,9.7,10.8,6.3
	l20.2-11.6l0,30.5c0,6.9,4.8,9.7,10.8,6.3c6-3.4,10.8-11.8,10.8-18.7l0-30.5l20.2-11.6c6-3.4,10.8-11.8,10.8-18.7
	c0-6.9-4.8-9.7-10.8-6.3l-20.2,11.6l0-30.5C148.1,312.2,143.3,309.4,137.3,312.9z"/>
</svg>
