<?xml version="1.0" encoding="utf-8"?>
<!-- Generator: Adobe Illustrator 22.1.0, SVG Export Plug-In . SVG Version: 6.00 Build 0)  -->
<svg version="1.1" id="Слой_1" xmlns="http://www.w3.org/2000/svg" xmlns:xlink="http://www.w3.org/1999/xlink" x="0px" y="0px"
	 viewBox="0 0 779 899" style="enable-background:new 0 0 779 899;" xml:space="preserve">
<style type="text/css">
	.st0{opacity:7.000000e-02;fill:url(#SVGID_1_);enable-background:new    ;}
	.st1{opacity:0.4;fill:url(#SVGID_2_);enable-background:new    ;}
	.st2{opacity:0.3;fill:url(#SVGID_3_);enable-background:new    ;}
	.st3{fill:#F2994A;}
	.st4{opacity:0.15;fill:#FFFFFF;enable-background:new    ;}
	.st5{opacity:0.3;fill:url(#SVGID_4_);enable-background:new    ;}
	.st6{fill:#F2C94C;}
	.st7{opacity:0.2;fill:url(#SVGID_5_);enable-background:new    ;}
	.st8{opacity:0.2;fill:url(#SVGID_6_);enable-background:new    ;}
	.st9{opacity:0.2;fill:#FFFFFF;enable-background:new    ;}
	.st10{opacity:0.2;fill:url(#SVGID_7_);enable-background:new    ;}
</style>
<linearGradient id="SVGID_1_" gradientUnits="userSpaceOnUse" x1="167.8474" y1="726.2349" x2="371.4913" y2="457.3029" gradientTransform="matrix(1 0 0 -1 0 900)">
	<stop  offset="0" style="stop-color:#FFFFFF"/>
	<stop  offset="1" style="stop-color:#FFFFFF;stop-opacity:0"/>
</linearGradient>
<path class="st0" d="M447.4,2.2L0.5,502.1l447-16c3.3-0.1,6.9-5.5,6.1-9.1l-44.9-199.7L183.4,390l227.8-148.9L453.5,4.4
	C454.3-0.2,450.7-1.4,447.4,2.2z"/>
<linearGradient id="SVGID_2_" gradientUnits="userSpaceOnUse" x1="202.1014" y1="701.3248" x2="405.7465" y2="432.3927" gradientTransform="matrix(1 0 0 -1 0 900)">
	<stop  offset="0" style="stop-color:#FFFFFF"/>
	<stop  offset="1" style="stop-color:#FFFFFF;stop-opacity:0"/>
</linearGradient>
<path class="st1" d="M481.7,27.1L34.8,527l447-16c3.3-0.1,6.9-5.5,6.1-9.1l-44.9-199.7L217.7,414.9L445.5,266l42.2-236.7
	C488.6,24.7,485,23.5,481.7,27.1z"/>
<linearGradient id="SVGID_3_" gradientUnits="userSpaceOnUse" x1="513.6599" y1="406.954" x2="667.3109" y2="286.65" gradientTransform="matrix(1 0 0 -1 0 900)">
	<stop  offset="0" style="stop-color:#FFFFFF"/>
	<stop  offset="1" style="stop-color:#FFFFFF;stop-opacity:0"/>
</linearGradient>
<path class="st2" d="M448.8,555.2l297.6-171.8l-0.1,155.1L474.9,695.1L448.7,734L448.8,555.2z"/>
<path class="st3" d="M778,443.9l0-42.1l-112.3,64.8l0,42.1L778,443.9z"/>
<path class="st4" d="M525.3,548.8l65.2-37.6l0,13.6l-65.2,37.6L525.3,548.8z"/>
<path class="st4" d="M525.2,576l125.7-72.5l0,13.6l-125.7,72.5L525.2,576z"/>
<path class="st4" d="M525.2,603.3l152.3-87.9l0,13.6l-152.3,87.9L525.2,603.3z"/>
<path class="st3" d="M509.2,572.2c0,12.8-7.6,27.5-16.9,32.9c-9.3,5.4-16.9-0.6-16.9-13.4c0-12.8,7.6-27.5,16.9-32.9
	C501.7,553.4,509.2,559.4,509.2,572.2z"/>
<linearGradient id="SVGID_4_" gradientUnits="userSpaceOnUse" x1="295.2454" y1="467.9036" x2="256.7744" y2="155.8716" gradientTransform="matrix(1 0 0 -1 0 900)">
	<stop  offset="0" style="stop-color:#FFFFFF"/>
	<stop  offset="1" style="stop-color:#FFFFFF;stop-opacity:0"/>
</linearGradient>
<path class="st5" d="M423.1,427.1L125.5,598.8l-0.1,155.1l271.3-156.6l26.2,8.6L423.1,427.1z"/>
<path class="st6" d="M212.1,626.2l0-42.1L99.8,648.9l0,42.1L212.1,626.2z"/>
<path class="st4" d="M346.5,509l-65.2,37.6l0,13.6l65.2-37.6L346.5,509z"/>
<path class="st4" d="M346.5,536.3l-117.7,67.9l0,13.6l117.7-67.9L346.5,536.3z"/>
<path class="st4" d="M346.5,563.5l-152.3,87.9l0,13.6l152.3-87.9L346.5,563.5z"/>
<path class="st6" d="M362.6,513.9c0,12.8,7.6,18.8,16.9,13.4c9.3-5.4,16.9-20.1,16.9-32.9c0-12.8-7.6-18.8-16.9-13.4
	C370.2,486.4,362.6,501.2,362.6,513.9z"/>
<linearGradient id="SVGID_5_" gradientUnits="userSpaceOnUse" x1="153.6029" y1="133.415" x2="193.6866" y2="63.9698" gradientTransform="matrix(1 0 0 -1 0 900)">
	<stop  offset="0" style="stop-color:#FFFFFF"/>
	<stop  offset="1" style="stop-color:#FFFFFF;stop-opacity:0"/>
</linearGradient>
<path class="st7" d="M84.8,806.3l177.7-102.6l0,92.6L84.8,898.9L84.8,806.3z"/>
<path class="st4" d="M217,752.3l-53.4,30.9l0,11.1l53.4-30.9L217,752.3z"/>
<path class="st4" d="M217,774.6l-113.8,65.7l0,11.3L217,785.9L217,774.6z"/>
<path class="st6" d="M226.4,755.6c0,7.6,4.5,11.2,10.1,8c5.6-3.2,10.1-12,10.1-19.6c0-7.6-4.5-11.2-10.1-8
	C230.9,739.2,226.4,748,226.4,755.6z"/>
<linearGradient id="SVGID_6_" gradientUnits="userSpaceOnUse" x1="645.6022" y1="275.4175" x2="685.6868" y2="205.9725" gradientTransform="matrix(1 0 0 -1 0 900)">
	<stop  offset="0" style="stop-color:#FFFFFF"/>
	<stop  offset="1" style="stop-color:#FFFFFF;stop-opacity:0"/>
</linearGradient>
<path class="st8" d="M576.8,664.3l177.7-102.6l0,92.6L576.8,756.9L576.8,664.3z"/>
<path class="st4" d="M709,610.3l-53.4,30.9l0,11.1l53.4-30.9L709,610.3z"/>
<path class="st4" d="M709,632.6l-113.8,65.7l0,11.3L709,643.9L709,632.6z"/>
<path class="st3" d="M718.4,613.6c0,7.6,4.5,11.2,10.1,8c5.6-3.2,10.1-12,10.1-19.6c0-7.6-4.5-11.2-10.1-8
	C722.9,597.2,718.4,606,718.4,613.6z"/>
<path class="st9" d="M551.3,369.8l42.8-24.7l0-14.4l-42.8,24.7c-3.5,2-8.6,6.1-12.9,12.4c-4.7,6.7-8,15.2-8,24.4
	c0,10.2,2.6,16,7.5,17.6c4.6,1.5,10.1-1.1,13.4-3l17.6-10.2l0.1-0.1c1.5-0.9,3.9-1.8,5.8-1.2c1.6,0.5,3.3,2,3.3,7.7
	c0,5.7-1.8,9.1-3.2,11.2c-1.8,2.6-4.2,4.4-5.7,5.2l-0.2,0.1l-53.8,31.1l0,14.4l53.5-30.9c3.7-1.9,9-6,13.6-12.4
	c5-7.1,8.4-16,8.4-25.9c0-9.9-3.4-14.9-8.3-16.3c-4.6-1.3-9.9,0.6-13.6,2.8l-17.4,10c-2.5,1.5-4.4,2.1-5.7,1.7c-1-0.3-2.8-1.7-2.8-9
	c0-4.8,1.5-7.9,3-9.9C547.6,372.5,549.9,370.6,551.3,369.8z"/>
<path class="st3" d="M586.3,342c0,12.9,7.6,19,16.9,13.7c9.3-5.4,16.9-20.2,16.9-33.2c0-12.9-7.6-19-16.9-13.7
	C593.9,314.2,586.3,329.1,586.3,342z"/>
<path class="st6" d="M493.3,470c0,12.9,7.6,19,16.9,13.7c9.3-5.4,16.9-20.2,16.9-33.2c0-12.9-7.6-19-16.9-13.7
	C500.9,442.2,493.3,457.1,493.3,470z"/>
<linearGradient id="SVGID_7_" gradientUnits="userSpaceOnUse" x1="333.1768" y1="180.2088" x2="383.5988" y2="148.2758" gradientTransform="matrix(1 0 0 -1 0 900)">
	<stop  offset="0" style="stop-color:#FFFFFF"/>
	<stop  offset="1" style="stop-color:#FFFFFF;stop-opacity:0"/>
</linearGradient>
<path class="st10" d="M374.5,676.7l0,84.3c0,0.9-0.9,1.9-1.5,1.6l-19.7-12.1L333.2,786c-1.1,1.9-3,2.1-3,0.3l0-84L374.5,676.7z"/>
</svg>
