<?xml version="1.0" encoding="utf-8"?>
<!-- Generator: Adobe Illustrator 22.1.0, SVG Export Plug-In . SVG Version: 6.00 Build 0)  -->
<svg version="1.1" id="illustration" xmlns="http://www.w3.org/2000/svg" xmlns:xlink="http://www.w3.org/1999/xlink" x="0px"
	 y="0px" viewBox="0 0 773 743" style="enable-background:new 0 0 773 743;" xml:space="preserve">
<style type="text/css">
	.st0{opacity:7.000000e-02;fill:url(#SVGID_1_);enable-background:new    ;}
	.st1{opacity:0.4;fill:url(#SVGID_2_);enable-background:new    ;}
	.st2{opacity:0.2;fill:url(#SVGID_3_);enable-background:new    ;}
	.st3{opacity:0.3;fill:url(#SVGID_4_);enable-background:new    ;}
	.st4{fill:#F2994A;}
	.st5{opacity:0.15;fill:#FFFFFF;enable-background:new    ;}
	.st6{opacity:0.3;fill:url(#SVGID_5_);enable-background:new    ;}
	.st7{opacity:0.3;fill:url(#SVGID_6_);enable-background:new    ;}
	.st8{fill:#F2C94C;}
	.st9{opacity:0.2;fill:#FFFFFF;enable-background:new    ;}
</style>
<linearGradient id="SVGID_1_" gradientUnits="userSpaceOnUse" x1="715.2327" y1="212.9551" x2="383.2977" y2="377.6175" gradientTransform="matrix(1 0 0 1 0 -48)">
	<stop  offset="0" style="stop-color:#FFFFFF"/>
	<stop  offset="1" style="stop-color:#FFFFFF;stop-opacity:0"/>
</linearGradient>
<path class="st0" d="M679.2,375.2c0,137.2-80.3,202-179.3,144.9S320.7,305.4,320.7,168.3c0-137.2,80.3-202,179.3-144.9
	S679.2,238,679.2,375.2z"/>
<linearGradient id="SVGID_2_" gradientUnits="userSpaceOnUse" x1="494.7856" y1="191.4158" x2="293.9446" y2="285.9893" gradientTransform="matrix(1 0 0 1 0 -48)">
	<stop  offset="0" style="stop-color:#FFFFFF"/>
	<stop  offset="1" style="stop-color:#FFFFFF;stop-opacity:0"/>
</linearGradient>
<path class="st1" d="M418.6,86.7C395,73.1,371.7,66.1,350,66s-41.5,6.8-58.2,20.3s-29.9,33.2-38.9,58.1s-13.7,54.6-13.7,87.2
	L418.5,335L418.6,86.7z"/>
<linearGradient id="SVGID_3_" gradientUnits="userSpaceOnUse" x1="588.3835" y1="260.5696" x2="441.4576" y2="412.2704" gradientTransform="matrix(1 0 0 1 0 -48)">
	<stop  offset="0" style="stop-color:#FFFFFF"/>
	<stop  offset="1" style="stop-color:#FFFFFF;stop-opacity:0"/>
</linearGradient>
<path class="st2" d="M279.2,197.2c0,49.1,10.5,103.2,30.2,155.4s47.7,100.2,80.4,137.9s68.8,63.4,103.6,73.9s66.7,5.3,91.8-15
	s42.1-54.7,49.1-98.8c6.9-44.2,3.4-96.2-10.2-149.4c-13.6-53.2-36.5-105.3-66-149.6S494,72.7,458.5,52.3v248.4L279.2,197.2z"/>
<linearGradient id="SVGID_4_" gradientUnits="userSpaceOnUse" x1="264.8863" y1="157.9583" x2="111.2363" y2="278.2623" gradientTransform="matrix(1 0 0 1 0 -48)">
	<stop  offset="0" style="stop-color:#FFFFFF"/>
	<stop  offset="1" style="stop-color:#FFFFFF;stop-opacity:0"/>
</linearGradient>
<path class="st3" d="M329.7,172L32.2,0.3l0.1,155.1L303.6,312l26.3,38.9L329.7,172z"/>
<path class="st4" d="M0.5,60.7V18.6l112.3,64.8v42.1L0.5,60.7z"/>
<path class="st5" d="M253.2,165.6L188,128v13.6l65.2,37.6V165.6z"/>
<path class="st5" d="M253.3,192.9l-125.7-72.5V134l125.7,72.5V192.9z"/>
<path class="st5" d="M253.3,220.1L101,132.3v13.6l152.3,87.9V220.1z"/>
<path class="st4" d="M269.3,189.1c0,12.8,7.6,27.5,16.9,32.9s16.9-0.6,16.9-13.4c0-12.8-7.6-27.5-16.9-32.9
	C276.8,170.3,269.3,176.3,269.3,189.1z"/>
<linearGradient id="SVGID_5_" gradientUnits="userSpaceOnUse" x1="577.3036" y1="464.9481" x2="615.7736" y2="776.978" gradientTransform="matrix(1 0 0 1 0 -48)">
	<stop  offset="0" style="stop-color:#FFFFFF"/>
	<stop  offset="1" style="stop-color:#FFFFFF;stop-opacity:0"/>
</linearGradient>
<path class="st6" d="M449.4,411.9L747,583.7l0.1,155.1L475.8,582.2l-26.2,8.6L449.4,411.9z"/>
<path class="st4" d="M660.4,611v-42.1l112.3,64.8v42.1L660.4,611z"/>
<path class="st5" d="M526,493.9l65.2,37.6v13.6L526,507.5V493.9z"/>
<path class="st5" d="M526,521.1L643.7,589v13.6L526,534.8V521.1z"/>
<path class="st5" d="M526,548.4l152.3,87.9v13.6L526,562V548.4z"/>
<path class="st4" d="M509.9,498.8c0,12.8-7.6,18.8-16.9,13.4c-9.3-5.4-16.9-20.1-16.9-32.9s7.6-18.8,16.9-13.4
	C502.3,471.3,509.9,486,509.9,498.8z"/>
<linearGradient id="SVGID_6_" gradientUnits="userSpaceOnUse" x1="425.6292" y1="410.4542" x2="276.8622" y2="668.1931" gradientTransform="matrix(1 0 0 1 0 -48)">
	<stop  offset="0" style="stop-color:#FFFFFF"/>
	<stop  offset="1" style="stop-color:#FFFFFF;stop-opacity:0"/>
</linearGradient>
<path class="st7" d="M240.1,335.1l167.6,96.7v310.5l-167.6-96.7V335.1z"/>
<path class="st5" d="M256.6,519.4l134.6,77.7v13.6L256.6,533V519.4z"/>
<path class="st5" d="M266,551.4l115.7,66.8v13.6L266,565V551.4z"/>
<path class="st8" d="M314.9,606.9l-116.6-67.3v34.7l116.6,67.3V606.9z"/>
<path class="st8" d="M343,457.2c0,15-8.7,22.1-19.4,15.9s-19.4-23.5-19.4-38.6c0-15,8.7-22.1,19.4-15.9
	C334.3,424.9,343,442.2,343,457.2z"/>
<path class="st8" d="M323.6,485.2c-17.3-10.1-31.6-0.6-34.1,21.1c-0.4,3.8,2.4,8.8,5.9,10.8l56.4,33c3.5,2,6.3,0.4,5.9-3.9
	C355.2,521.4,340.9,495.3,323.6,485.2z"/>
<path class="st9" d="M146.8,309.7L104,285v-14.4l42.8,24.7c3.5,2,8.6,6.1,12.9,12.4c4.7,6.7,8,15.2,8,24.4c0,10.2-2.6,16-7.5,17.6
	c-4.6,1.5-10.1-1.1-13.4-3l-17.6-10.2l-0.1-0.1c-1.5-0.9-3.9-1.8-5.8-1.2c-1.6,0.5-3.3,2-3.3,7.7s1.8,9.1,3.2,11.2
	c1.8,2.6,4.2,4.4,5.7,5.2l0.2,0.1l53.8,31.1v14.4L129.5,374c-3.7-1.9-9-6-13.6-12.4c-5-7.1-8.4-16-8.4-25.9s3.4-14.9,8.3-16.3
	c4.6-1.3,9.9,0.6,13.6,2.8l17.4,10.1c2.5,1.5,4.4,2.1,5.7,1.7c1-0.3,2.8-1.7,2.8-9c0-4.8-1.5-7.9-3-9.9
	C150.5,312.4,148.2,310.5,146.8,309.7z"/>
<path class="st4" d="M111.8,281.9c0,12.9-7.6,19-16.9,13.7c-9.3-5.4-16.9-20.2-16.9-33.2c0-12.9,7.6-19,16.9-13.7
	C104.2,254.1,111.8,269,111.8,281.9z"/>
<path class="st8" d="M204.8,409.9c0,12.9-7.6,19-16.9,13.7c-9.3-5.4-16.9-20.2-16.9-33.2c0-12.9,7.6-19,16.9-13.7
	C197.2,382.1,204.8,397,204.8,409.9z"/>
</svg>
