<?xml version="1.0" encoding="utf-8"?>
<!-- Generator: Adobe Illustrator 22.1.0, SVG Export Plug-In . SVG Version: 6.00 Build 0)  -->
<svg version="1.1" id="Слой_1" xmlns="http://www.w3.org/2000/svg" xmlns:xlink="http://www.w3.org/1999/xlink" x="0px" y="0px"
	 viewBox="0 0 831 830" style="enable-background:new 0 0 831 830;" xml:space="preserve">
<style type="text/css">
	.st0{opacity:0.4;fill:url(#SVGID_1_);enable-background:new    ;}
	.st1{opacity:7.000000e-02;fill:url(#SVGID_2_);enable-background:new    ;}
	.st2{opacity:0.2;fill:#FFFFFF;enable-background:new    ;}
	.st3{fill:#F2994A;}
	.st4{opacity:7.000000e-02;fill:url(#SVGID_3_);enable-background:new    ;}
	.st5{opacity:0.3;fill:url(#SVGID_4_);enable-background:new    ;}
	.st6{opacity:0.15;fill:#FFFFFF;enable-background:new    ;}
	.st7{opacity:7.000000e-02;fill:url(#SVGID_5_);enable-background:new    ;}
	.st8{opacity:0.3;fill:url(#SVGID_6_);enable-background:new    ;}
	.st9{opacity:0.3;fill:url(#SVGID_7_);enable-background:new    ;}
	.st10{fill:#F2C94C;}
	.st11{opacity:0.2;fill:url(#SVGID_8_);enable-background:new    ;}
	.st12{opacity:0.2;fill:url(#SVGID_9_);enable-background:new    ;}
</style>
<linearGradient id="SVGID_1_" gradientUnits="userSpaceOnUse" x1="68.0884" y1="622.9653" x2="377.5156" y2="329.4662" gradientTransform="matrix(1 0 0 -1 0 830)">
	<stop  offset="0" style="stop-color:#FFFFFF"/>
	<stop  offset="1" style="stop-color:#FFFFFF;stop-opacity:0"/>
</linearGradient>
<path class="st0" d="M125.9,398c0,4.5,0.1,9,0.4,13.2c-43,32.7-76.1,102.8-76.1,164.5c0,67.2,39.3,98.9,87.8,70.9
	c0.1-0.1,0.2-0.1,0.3-0.2L443,470.7c0.1-0.1,0.2-0.1,0.4-0.2C497.8,439,542,352.3,542,276.8c0-70.7-38.8-106.6-88.5-84.9
	c-6.1-48.5-38.6-69.4-77.8-46.7c-18.8,10.9-36.1,30-49.6,53c-19.6-29.2-53-36.5-90.8-14.7C174.9,218.3,125.9,314.4,125.9,398z"/>
<linearGradient id="SVGID_2_" gradientUnits="userSpaceOnUse" x1="18.0775" y1="670.9655" x2="327.5049" y2="377.4665" gradientTransform="matrix(1 0 0 -1 0 830)">
	<stop  offset="0" style="stop-color:#FFFFFF"/>
	<stop  offset="1" style="stop-color:#FFFFFF;stop-opacity:0"/>
</linearGradient>
<path class="st1" d="M75.9,350c0,4.5,0.1,9,0.4,13.2C33.4,396,0.2,466.1,0.2,527.8c0,67.2,39.3,98.9,87.8,70.9
	c0.1-0.1,0.2-0.1,0.3-0.2L393,422.7c0.1-0.1,0.2-0.1,0.4-0.2C447.8,391,492,304.3,492,228.8c0-70.7-38.8-106.6-88.5-84.9
	c-6.1-48.5-38.6-69.4-77.8-46.7c-18.8,10.9-36.1,30-49.6,53c-19.6-29.2-53-36.5-90.8-14.7C124.9,170.3,75.9,266.4,75.9,350z"/>
<path class="st2" d="M608.3,483.6l46.4-26.8l0-15.7l-46.4,26.8c-3.8,2.2-9.3,6.6-14,13.4c-5.1,7.3-8.7,16.5-8.7,26.5
	c0,11,2.8,17.3,8.2,19.1c5,1.7,10.9-1.2,14.5-3.3l19.1-11l0.1-0.1c1.6-1,4.2-1.9,6.3-1.3c1.7,0.5,3.6,2.2,3.6,8.3
	c0,6.1-1.9,9.9-3.5,12.1c-2,2.8-4.6,4.8-6.2,5.6l-0.2,0.1l-58.3,33.7l0,15.7l58-33.5c4-2.1,9.7-6.5,14.7-13.5
	c5.4-7.6,9.2-17.3,9.2-28.1c0-10.7-3.7-16.2-9-17.7c-5-1.4-10.7,0.6-14.7,3.1L608.3,508c-2.7,1.6-4.8,2.3-6.1,1.8
	c-1-0.3-3-1.8-3-9.8c0-5.1,1.7-8.5,3.2-10.8C604.3,486.5,606.8,484.5,608.3,483.6z"/>
<path class="st3" d="M644.7,452.9c0,12.9,7.6,19,16.9,13.7c9.3-5.4,16.9-20.2,16.9-33.2c0-12.9-7.6-19-16.9-13.7
	C652.3,425.1,644.7,440,644.7,452.9z"/>
<path class="st3" d="M545.7,591.9c0,12.9,7.6,19,16.9,13.7c9.3-5.4,16.9-20.2,16.9-33.2c0-12.9-7.6-19-16.9-13.7
	C553.3,564.1,545.7,579,545.7,591.9z"/>
<linearGradient id="SVGID_3_" gradientUnits="userSpaceOnUse" x1="322.0187" y1="557.6087" x2="310.8447" y2="276.8907" gradientTransform="matrix(1 0 0 -1 0 830)">
	<stop  offset="0" style="stop-color:#FFFFFF"/>
	<stop  offset="1" style="stop-color:#FFFFFF;stop-opacity:0"/>
</linearGradient>
<path class="st4" d="M465.8,259.7L166,432.7l0,158.7l299.9-173.1L465.8,259.7z"/>
<linearGradient id="SVGID_4_" gradientUnits="userSpaceOnUse" x1="362.0207" y1="537.6087" x2="350.8467" y2="256.8907" gradientTransform="matrix(1 0 0 -1 0 830)">
	<stop  offset="0" style="stop-color:#FFFFFF"/>
	<stop  offset="1" style="stop-color:#FFFFFF;stop-opacity:0"/>
</linearGradient>
<path class="st5" d="M505.8,279.7L206,452.7l0,158.7l299.9-173.1L505.8,279.7z"/>
<path class="st3" d="M479,374.2c0,12.8-7.6,27.5-16.9,32.9c-9.3,5.4-16.9-0.6-16.9-13.4c0-12.8,7.6-27.5,16.9-32.9
	C471.4,355.4,479,361.4,479,374.2z"/>
<path class="st6" d="M436.7,398.9c0,5.9-3.5,12.8-7.9,15.3c-4.3,2.5-7.8-0.3-7.8-6.2c0-5.9,3.5-12.8,7.9-15.3
	C433.2,390.2,436.7,393,436.7,398.9z"/>
<path class="st6" d="M412.6,412.8c0,5.9-3.5,12.8-7.9,15.3c-4.3,2.5-7.8-0.3-7.8-6.2c0-5.9,3.5-12.8,7.9-15.3
	C409.1,404.1,412.6,406.9,412.6,412.8z"/>
<path class="st6" d="M281.7,439.8l0,90.3l11.8-6.8l0-90.3L281.7,439.8z"/>
<path class="st6" d="M255.9,454.8l0,90.3l11.8-6.8l0-90.3L255.9,454.8z"/>
<path class="st6" d="M230,469.8l0,90.3l11.8-6.8l0-90.3L230,469.8z"/>
<linearGradient id="SVGID_5_" gradientUnits="userSpaceOnUse" x1="322.0407" y1="340.6757" x2="310.8667" y2="59.9577" gradientTransform="matrix(1 0 0 -1 0 830)">
	<stop  offset="0" style="stop-color:#FFFFFF"/>
	<stop  offset="1" style="stop-color:#FFFFFF;stop-opacity:0"/>
</linearGradient>
<path class="st7" d="M465.9,476.6L166,649.7l0,158.7l299.9-173.1L465.9,476.6z"/>
<linearGradient id="SVGID_6_" gradientUnits="userSpaceOnUse" x1="362.0427" y1="319.6767" x2="350.8687" y2="38.9577" gradientTransform="matrix(1 0 0 -1 0 830)">
	<stop  offset="0" style="stop-color:#FFFFFF"/>
	<stop  offset="1" style="stop-color:#FFFFFF;stop-opacity:0"/>
</linearGradient>
<path class="st8" d="M505.9,497.6L206,670.7l0,158.7l299.9-173.1L505.9,497.6z"/>
<path class="st3" d="M479,592.1c0,12.8-7.6,27.5-16.9,32.9c-9.3,5.4-16.9-0.6-16.9-13.4c0-12.8,7.6-27.5,16.9-32.9
	C471.4,573.3,479,579.3,479,592.1z"/>
<path class="st6" d="M436.7,616.9c0,5.9-3.5,12.8-7.9,15.3c-4.3,2.5-7.8-0.3-7.8-6.2c0-5.9,3.5-12.8,7.9-15.3
	C433.2,608.2,436.7,610.9,436.7,616.9z"/>
<path class="st6" d="M412.6,630.8c0,5.9-3.5,12.8-7.9,15.3c-4.3,2.5-7.8-0.3-7.8-6.2c0-5.9,3.5-12.8,7.9-15.3
	C409.1,622,412.7,624.8,412.6,630.8z"/>
<path class="st6" d="M281.7,660.8l0,90.3l11.8-6.8l0-90.3L281.7,660.8z"/>
<path class="st6" d="M255.9,675.8l0,90.3l11.8-6.8l0-90.3L255.9,675.8z"/>
<path class="st6" d="M230,690.8l0,90.3l11.8-6.8l0-90.3L230,690.8z"/>
<linearGradient id="SVGID_7_" gradientUnits="userSpaceOnUse" x1="565.2586" y1="754.9653" x2="731.1686" y2="467.5249" gradientTransform="matrix(1 0 0 -1 0 830)">
	<stop  offset="0" style="stop-color:#FFFFFF"/>
	<stop  offset="1" style="stop-color:#FFFFFF;stop-opacity:0"/>
</linearGradient>
<path class="st9" d="M772.1,44.6L585.3,152.4l0,346.3l186.9-107.9L772.1,44.6z"/>
<path class="st10" d="M656.8,170c0,17.3,10,25.5,22.3,18.3c12.3-7.2,22.3-27,22.3-44.3s-10-25.5-22.3-18.3
	C666.8,132.9,656.8,152.7,656.8,170z"/>
<path class="st10" d="M679.1,202.2c19.9-11.6,36.3-0.7,39.2,24.3c0.5,4.3-2.8,10.1-6.8,12.4l-64.9,37.9c-4,2.3-7.3,0.5-6.8-4.5
	C642.8,243.8,659.3,213.8,679.1,202.2z"/>
<path class="st6" d="M734.7,269.2l-111.4,64.3l0,13.6l111.4-64.3L734.7,269.2z"/>
<path class="st6" d="M723.4,302.7l-88.3,50.9l0,13.6l88.3-50.9L723.4,302.7z"/>
<path class="st10" d="M700.9,359.9l130-75.1l0,38.7l-130,75.1L700.9,359.9z"/>
<linearGradient id="SVGID_8_" gradientUnits="userSpaceOnUse" x1="525.2058" y1="774.2245" x2="575.9258" y2="745.9504" gradientTransform="matrix(1 0 0 -1 0 830)">
	<stop  offset="0" style="stop-color:#FFFFFF"/>
	<stop  offset="1" style="stop-color:#FFFFFF;stop-opacity:0"/>
</linearGradient>
<path class="st11" d="M545,0.7l-27.8,54.6c-3.8,7.5-3.2,15,1.4,16.8c4.6,1.8,11.4-2.9,15.2-10.4l0.3-0.7l0,60.6
	c0,6.9,4.8,9.7,10.8,6.3c6-3.5,10.8-11.8,10.8-18.7l0-60.6l0.3,0.3c3.8,3.1,10.7-0.1,15.2-7.2c4.6-7.1,5.2-15.3,1.4-18.4L545,0.7z"
	/>
<linearGradient id="SVGID_9_" gradientUnits="userSpaceOnUse" x1="564.8245" y1="78.1385" x2="514.1045" y2="106.4125" gradientTransform="matrix(1 0 0 -1 0 830)">
	<stop  offset="0" style="stop-color:#FFFFFF"/>
	<stop  offset="1" style="stop-color:#FFFFFF;stop-opacity:0"/>
</linearGradient>
<path class="st12" d="M545,806.9l27.8-54.6c3.8-7.5,3.2-15-1.4-16.8c-4.6-1.8-11.4,2.9-15.2,10.4l-0.3,0.7l0-60.6
	c0-6.9-4.8-9.7-10.8-6.3c-6,3.5-10.8,11.8-10.8,18.7l0,60.6l-0.3-0.3c-3.8-3.1-10.7,0.1-15.2,7.2c-4.6,7.1-5.2,15.3-1.4,18.4
	L545,806.9z"/>
</svg>
