<?xml version="1.0" encoding="utf-8"?>
<!-- Generator: Adobe Illustrator 22.1.0, SVG Export Plug-In . SVG Version: 6.00 Build 0)  -->
<svg version="1.1" id="Слой_1" xmlns="http://www.w3.org/2000/svg" xmlns:xlink="http://www.w3.org/1999/xlink" x="0px" y="0px"
	 viewBox="0 0 779 946" style="enable-background:new 0 0 779 946;" xml:space="preserve">
<style type="text/css">
	.st0{opacity:0.3;fill:url(#SVGID_1_);enable-background:new    ;}
	.st1{fill:#F2994A;}
	.st2{opacity:0.15;fill:#FFFFFF;enable-background:new    ;}
	.st3{opacity:0.3;fill:url(#SVGID_2_);enable-background:new    ;}
	.st4{fill:#F2C94C;}
	.st5{opacity:0.3;fill:url(#SVGID_3_);enable-background:new    ;}
	.st6{opacity:0.3;fill:url(#SVGID_4_);enable-background:new    ;}
	.st7{opacity:0.4;fill:url(#SVGID_5_);enable-background:new    ;}
	.st8{opacity:0.4;fill:url(#SVGID_6_);enable-background:new    ;}
	.st9{opacity:0.4;fill:url(#SVGID_7_);enable-background:new    ;}
	.st10{opacity:0.4;fill:url(#SVGID_8_);enable-background:new    ;}
	.st11{opacity:7.000000e-02;fill:url(#SVGID_9_);enable-background:new    ;}
	.st12{opacity:7.000000e-02;fill:url(#SVGID_10_);enable-background:new    ;}
	.st13{opacity:7.000000e-02;fill:url(#SVGID_11_);enable-background:new    ;}
	.st14{opacity:7.000000e-02;fill:url(#SVGID_12_);enable-background:new    ;}
	.st15{opacity:0.2;fill:url(#SVGID_13_);enable-background:new    ;}
	.st16{opacity:0.2;fill:url(#SVGID_14_);enable-background:new    ;}
</style>
<linearGradient id="SVGID_1_" gradientUnits="userSpaceOnUse" x1="204.8665" y1="567.7512" x2="166.5925" y2="255.7271" gradientTransform="matrix(1 0 0 -1 0 946)">
	<stop  offset="0" style="stop-color:#FFFFFF"/>
	<stop  offset="1" style="stop-color:#FFFFFF;stop-opacity:0"/>
</linearGradient>
<path class="st0" d="M332.8,373.2L35.2,545.1l0,155.1l271.3-156.7l26.2,8.6L332.8,373.2z"/>
<path class="st1" d="M272.3,460c0,12.8,7.6,18.8,16.9,13.4c9.3-5.4,16.9-20.1,16.9-32.9c0-12.8-7.6-18.8-16.9-13.4
	C279.9,432.5,272.3,447.3,272.3,460z"/>
<path class="st2" d="M256.3,455.1l-65.2,37.7l0,13.6l65.2-37.7L256.3,455.1z"/>
<path class="st2" d="M256.3,482.4L61.5,594.9l0,13.6L256.3,496L256.3,482.4z"/>
<path class="st2" d="M256.3,509.6l-152.3,88l0,13.6l152.3-88L256.3,509.6z"/>
<linearGradient id="SVGID_2_" gradientUnits="userSpaceOnUse" x1="363.449" y1="752.3777" x2="512.217" y2="494.6367" gradientTransform="matrix(1 0 0 -1 0 946)">
	<stop  offset="0" style="stop-color:#FFFFFF"/>
	<stop  offset="1" style="stop-color:#FFFFFF;stop-opacity:0"/>
</linearGradient>
<path class="st3" d="M549,166.3L381.4,263l0,310.5L549,476.8L549,166.3z"/>
<path class="st2" d="M532.5,350.6l-134.6,77.7l0,13.6l134.6-77.7L532.5,350.6z"/>
<path class="st2" d="M523.1,382.5l-115.7,66.8l0,13.6l115.7-66.8L523.1,382.5z"/>
<path class="st4" d="M474.2,438.1l116.6-67.3l0,34.7l-116.6,67.3L474.2,438.1z"/>
<path class="st4" d="M446.1,288.3c0,15,8.7,22.1,19.4,15.9c10.7-6.3,19.4-23.5,19.4-38.6c0-15-8.7-22.1-19.4-15.9
	C454.8,256.1,446.1,273.3,446.1,288.3z"/>
<path class="st4" d="M465.5,316.3c17.3-10.1,31.6-0.6,34.1,21.1c0.4,3.8-2.4,8.8-5.9,10.8l-56.4,33c-3.5,2-6.3,0.4-5.9-3.9
	C433.9,352.6,448.2,326.4,465.5,316.3z"/>
<linearGradient id="SVGID_3_" gradientUnits="userSpaceOnUse" x1="247.241" y1="380.5007" x2="396.009" y2="122.7597" gradientTransform="matrix(1 0 0 -1 0 946)">
	<stop  offset="0" style="stop-color:#FFFFFF"/>
	<stop  offset="1" style="stop-color:#FFFFFF;stop-opacity:0"/>
</linearGradient>
<path class="st5" d="M432.7,538.2l-167.6,96.7l0,310.5l167.6-96.7L432.7,538.2z"/>
<path class="st2" d="M416.3,722.5l-134.6,77.7l0,13.6l134.6-77.7L416.3,722.5z"/>
<path class="st2" d="M406.9,754.4l-115.7,66.8l0,13.6L406.9,768L406.9,754.4z"/>
<path class="st1" d="M223.6,887.5l116.6-67.3l0,34.7l-116.6,67.3L223.6,887.5z"/>
<path class="st1" d="M329.9,660.2c0,15,8.7,22.1,19.4,15.9c10.7-6.3,19.4-23.5,19.4-38.6c0-15-8.7-22.1-19.4-15.9
	C338.6,627.9,329.9,645.2,329.9,660.2z"/>
<path class="st1" d="M349.3,688.2c17.3-10.1,31.6-0.6,34.1,21.1c0.4,3.8-2.4,8.8-5.9,10.8l-56.4,33c-3.5,2-6.3,0.4-5.9-3.9
	C317.7,724.5,332,698.3,349.3,688.2z"/>
<linearGradient id="SVGID_4_" gradientUnits="userSpaceOnUse" x1="546.1246" y1="497.1015" x2="699.7845" y2="376.8485" gradientTransform="matrix(1 0 0 -1 0 946)">
	<stop  offset="0" style="stop-color:#FFFFFF"/>
	<stop  offset="1" style="stop-color:#FFFFFF;stop-opacity:0"/>
</linearGradient>
<path class="st6" d="M481.2,511.1l297.6-171.9l0,155.1L507.4,651l-26.3,38.9L481.2,511.1z"/>
<path class="st4" d="M541.7,528.1c0,12.8-7.6,27.5-16.9,32.9c-9.3,5.4-16.9-0.6-16.9-13.4c0-12.8,7.6-27.5,16.9-32.9
	C534.1,509.3,541.7,515.3,541.7,528.1z"/>
<path class="st2" d="M557.7,504.6l65.2-37.7l0,13.6l-65.2,37.7L557.7,504.6z"/>
<path class="st2" d="M557.7,531.9l194.7-112.5l0,13.6L557.7,545.5L557.7,531.9z"/>
<path class="st2" d="M557.7,559.2l152.3-88l0,13.6l-152.3,88L557.7,559.2z"/>
<linearGradient id="SVGID_5_" gradientUnits="userSpaceOnUse" x1="100.2607" y1="923.0958" x2="348.9117" y2="632.9587" gradientTransform="matrix(1 0 0 -1 0 946)">
	<stop  offset="0" style="stop-color:#FFFFFF"/>
	<stop  offset="1" style="stop-color:#FFFFFF;stop-opacity:0"/>
</linearGradient>
<path class="st7" d="M40.8,128.3c168.8-97.5,306.8,18,306.8,260.4l43.1-24.9C390.6,90,234.5-43.2,40.8,68.6L40.8,128.3z"/>
<linearGradient id="SVGID_6_" gradientUnits="userSpaceOnUse" x1="-52.9024" y1="791.7181" x2="195.7486" y2="501.5801" gradientTransform="matrix(1 0 0 -1 0 946)">
	<stop  offset="0" style="stop-color:#FFFFFF"/>
	<stop  offset="1" style="stop-color:#FFFFFF;stop-opacity:0"/>
</linearGradient>
<path class="st8" d="M181.6,484.7c0-107.6-63-158.5-140.7-113.7l0-59.7c101.5-58.6,183.7,7.9,183.8,148.5L181.6,484.7z"/>
<linearGradient id="SVGID_7_" gradientUnits="userSpaceOnUse" x1="22.0898" y1="856.9716" x2="270.7418" y2="566.8345" gradientTransform="matrix(1 0 0 -1 0 946)">
	<stop  offset="0" style="stop-color:#FFFFFF"/>
	<stop  offset="1" style="stop-color:#FFFFFF;stop-opacity:0"/>
</linearGradient>
<path class="st9" d="M265.6,435.1c0-171.8-100.6-253-224.5-181.4l0-59.7c147.8-85.3,267.6,11.5,267.6,216.2L265.6,435.1z"/>
<linearGradient id="SVGID_8_" gradientUnits="userSpaceOnUse" x1="-138.9727" y1="718.1046" x2="109.6783" y2="427.9676" gradientTransform="matrix(1 0 0 -1 0 946)">
	<stop  offset="0" style="stop-color:#FFFFFF"/>
	<stop  offset="1" style="stop-color:#FFFFFF;stop-opacity:0"/>
</linearGradient>
<path class="st10" d="M81.8,542.2c-22.6,13.1-40.9-1.8-40.9-33.1c0-31.3,18.3-67.3,40.9-80.4c22.6-13.1,40.9,1.8,40.9,33.1
	C122.7,493.2,104.4,529.1,81.8,542.2z"/>
<linearGradient id="SVGID_9_" gradientUnits="userSpaceOnUse" x1="60.2625" y1="952.0956" x2="308.9135" y2="661.9586" gradientTransform="matrix(1 0 0 -1 0 946)">
	<stop  offset="0" style="stop-color:#FFFFFF"/>
	<stop  offset="1" style="stop-color:#FFFFFF;stop-opacity:0"/>
</linearGradient>
<path class="st11" d="M0.8,99.3c168.8-97.5,306.8,18,306.8,260.4l43.1-24.9C350.6,61,194.5-72.2,0.8,39.6L0.8,99.3z"/>
<linearGradient id="SVGID_10_" gradientUnits="userSpaceOnUse" x1="-92.9007" y1="820.7178" x2="155.7503" y2="530.5798" gradientTransform="matrix(1 0 0 -1 0 946)">
	<stop  offset="0" style="stop-color:#FFFFFF"/>
	<stop  offset="1" style="stop-color:#FFFFFF;stop-opacity:0"/>
</linearGradient>
<path class="st12" d="M141.6,455.7c0-107.6-63-158.5-140.7-113.7l0-59.7c101.5-58.6,183.7,7.9,183.8,148.5L141.6,455.7z"/>
<linearGradient id="SVGID_11_" gradientUnits="userSpaceOnUse" x1="-17.9087" y1="885.9719" x2="230.7423" y2="595.8349" gradientTransform="matrix(1 0 0 -1 0 946)">
	<stop  offset="0" style="stop-color:#FFFFFF"/>
	<stop  offset="1" style="stop-color:#FFFFFF;stop-opacity:0"/>
</linearGradient>
<path class="st13" d="M225.6,406.1c0-171.8-100.6-253-224.5-181.4l0-59.7c147.8-85.3,267.6,11.5,267.6,216.2L225.6,406.1z"/>
<linearGradient id="SVGID_12_" gradientUnits="userSpaceOnUse" x1="-178.9715" y1="747.1047" x2="69.6796" y2="456.9678" gradientTransform="matrix(1 0 0 -1 0 946)">
	<stop  offset="0" style="stop-color:#FFFFFF"/>
	<stop  offset="1" style="stop-color:#FFFFFF;stop-opacity:0"/>
</linearGradient>
<path class="st14" d="M41.8,513.2c-22.6,13.1-40.9-1.8-40.9-33.1c0-31.3,18.3-67.3,40.9-80.4c22.6-13.1,40.9,1.8,40.9,33.1
	C82.7,464.2,64.4,500.1,41.8,513.2z"/>
<linearGradient id="SVGID_13_" gradientUnits="userSpaceOnUse" x1="151.8921" y1="238.4801" x2="204.2491" y2="197.1601" gradientTransform="matrix(1 0 0 -1 0 946)">
	<stop  offset="0" style="stop-color:#FFFFFF"/>
	<stop  offset="1" style="stop-color:#FFFFFF;stop-opacity:0"/>
</linearGradient>
<path class="st15" d="M172.8,668.5c-6,3.4-10.8,11.8-10.8,18.7l0,30.5l-20.2,11.6c-6,3.4-10.8,11.8-10.8,18.7
	c0,6.9,4.8,9.7,10.8,6.3l20.2-11.6l0,30.5c0,6.9,4.8,9.7,10.8,6.3c6-3.4,10.8-11.8,10.8-18.7l0-30.5l20.2-11.6
	c6-3.4,10.8-11.8,10.8-18.7c0-6.9-4.8-9.7-10.8-6.3l-20.2,11.6l0-30.5C183.6,667.9,178.8,665.1,172.8,668.5z"/>
<linearGradient id="SVGID_14_" gradientUnits="userSpaceOnUse" x1="629.4855" y1="658.0555" x2="680.2055" y2="629.7814" gradientTransform="matrix(1 0 0 -1 0 946)">
	<stop  offset="0" style="stop-color:#FFFFFF"/>
	<stop  offset="1" style="stop-color:#FFFFFF;stop-opacity:0"/>
</linearGradient>
<path class="st16" d="M649.3,232.9l-27.8,54.6c-3.8,7.5-3.2,15,1.4,16.8c4.6,1.8,11.4-2.9,15.2-10.4l0.3-0.7l0,60.6
	c0,6.9,4.8,9.7,10.8,6.3c6-3.5,10.8-11.8,10.8-18.7l0-60.6l0.3,0.3c3.8,3.1,10.7-0.1,15.2-7.2c4.6-7.1,5.2-15.3,1.4-18.4
	L649.3,232.9z"/>
</svg>
