<?xml version="1.0" encoding="utf-8"?>
<!-- Generator: Adobe Illustrator 22.1.0, SVG Export Plug-In . SVG Version: 6.00 Build 0)  -->
<svg version="1.1" id="Слой_1" xmlns="http://www.w3.org/2000/svg" xmlns:xlink="http://www.w3.org/1999/xlink" x="0px" y="0px"
	 viewBox="0 0 745 738" style="enable-background:new 0 0 745 738;" xml:space="preserve">
<style type="text/css">
	.st0{opacity:7.000000e-02;fill:url(#SVGID_1_);enable-background:new    ;}
	.st1{opacity:0.4;fill:url(#SVGID_2_);enable-background:new    ;}
	.st2{opacity:0.2;fill:url(#SVGID_3_);enable-background:new    ;}
	.st3{opacity:0.25;fill:url(#SVGID_4_);enable-background:new    ;}
	.st4{opacity:0.15;fill:#FFFFFF;enable-background:new    ;}
	.st5{fill:#F2C94C;}
	.st6{opacity:0.25;fill:url(#SVGID_5_);enable-background:new    ;}
	.st7{fill:#F2994A;}
	.st8{opacity:0.25;fill:url(#SVGID_6_);enable-background:new    ;}
</style>
<linearGradient id="SVGID_1_" gradientUnits="userSpaceOnUse" x1="61.3962" y1="626.0649" x2="350.4422" y2="464.2568" gradientTransform="matrix(1 0 0 -1 0 740)">
	<stop  offset="0" style="stop-color:#FFFFFF"/>
	<stop  offset="1" style="stop-color:#FFFFFF;stop-opacity:0"/>
</linearGradient>
<path class="st0" d="M226.6,460.6c338.4-435.5,93.6-592.9,0-337.7C132.9-24.2-111.8,415.7,226.6,460.6z"/>
<linearGradient id="SVGID_2_" gradientUnits="userSpaceOnUse" x1="93.3953" y1="586.0645" x2="382.4424" y2="424.2566" gradientTransform="matrix(1 0 0 -1 0 740)">
	<stop  offset="0" style="stop-color:#FFFFFF"/>
	<stop  offset="1" style="stop-color:#FFFFFF;stop-opacity:0"/>
</linearGradient>
<path class="st1" d="M258.6,500.6C597,65,352.2-92.3,258.6,162.9C164.9,15.8-79.8,455.7,258.6,500.6z"/>
<linearGradient id="SVGID_3_" gradientUnits="userSpaceOnUse" x1="626.033" y1="391.6467" x2="678.391" y2="350.3267" gradientTransform="matrix(1 0 0 -1 0 740)">
	<stop  offset="0" style="stop-color:#FFFFFF"/>
	<stop  offset="1" style="stop-color:#FFFFFF;stop-opacity:0"/>
</linearGradient>
<path class="st2" d="M646.9,309.4c-6,3.4-10.8,11.8-10.8,18.7l0,30.5l-20.2,11.6c-6,3.4-10.8,11.8-10.8,18.7c0,6.9,4.8,9.7,10.8,6.3
	l20.2-11.6l0,30.5c0,6.9,4.8,9.7,10.8,6.3c6-3.4,10.8-11.8,10.8-18.7l0-30.5l20.2-11.6c6-3.4,10.8-11.8,10.8-18.7s-4.8-9.7-10.8-6.3
	l-20.2,11.6l0-30.5C657.8,308.7,652.9,305.9,646.9,309.4z"/>
<linearGradient id="SVGID_4_" gradientUnits="userSpaceOnUse" x1="357.6702" y1="432.0616" x2="523.5803" y2="144.6216" gradientTransform="matrix(1 0 0 -1 0 740)">
	<stop  offset="0" style="stop-color:#FFFFFF"/>
	<stop  offset="1" style="stop-color:#FFFFFF;stop-opacity:0"/>
</linearGradient>
<path class="st3" d="M564.6,277.5L377.7,385.3l0,346.3l186.9-107.9L564.6,277.5z"/>
<path class="st4" d="M546.2,483l-150.1,86.6l0,13.6l150.1-86.6L546.2,483z"/>
<path class="st4" d="M535.7,515.3l-129.1,74.5l0,13.6l129.1-74.5L535.7,515.3z"/>
<path class="st5" d="M481.2,580.6l130-75.1l0,38.7l-130,75.1L481.2,580.6z"/>
<path class="st5" d="M449.8,413.6c0,16.8,9.7,24.7,21.7,17.7c12-7,21.7-26.2,21.7-43c0-16.8-9.7-24.7-21.7-17.7
	C459.5,377.6,449.8,396.8,449.8,413.6z"/>
<path class="st5" d="M471.5,444.8c19.3-11.3,35.2-0.7,38.1,23.6c0.5,4.2-2.7,9.8-6.6,12L440,517.1c-3.9,2.3-7.1,0.4-6.6-4.3
	C436.3,485.2,452.2,456,471.5,444.8z"/>
<linearGradient id="SVGID_5_" gradientUnits="userSpaceOnUse" x1="182.5639" y1="297.0594" x2="182.1239" y2="39.0465" gradientTransform="matrix(1 0 0 -1 0 740)">
	<stop  offset="0" style="stop-color:#FFFFFF"/>
	<stop  offset="1" style="stop-color:#FFFFFF;stop-opacity:0"/>
</linearGradient>
<path class="st6" d="M33.5,582.4l297.7-171.8l0,155.1L33.5,737.5L33.5,582.4z"/>
<path class="st4" d="M234.4,521.5L148.7,571l0,13.6l85.7-49.5L234.4,521.5z"/>
<path class="st4" d="M234.4,547.6L59.6,648.5l0,13.6l174.9-100.9L234.4,547.6z"/>
<path class="st7" d="M0.1,630.8l130-75.1l0,38.7l-130,75.1L0.1,630.8z"/>
<path class="st7" d="M260.7,527.1c0,17.2,10.1,25.4,22.5,18.2c12.4-7.2,22.5-27,22.5-44.2c0-17.2-10.1-25.4-22.5-18.2
	C270.8,490.1,260.7,509.9,260.7,527.1z"/>
<linearGradient id="SVGID_6_" gradientUnits="userSpaceOnUse" x1="595.558" y1="667.0582" x2="595.118" y2="409.0454" gradientTransform="matrix(1 0 0 -1 0 740)">
	<stop  offset="0" style="stop-color:#FFFFFF"/>
	<stop  offset="1" style="stop-color:#FFFFFF;stop-opacity:0"/>
</linearGradient>
<path class="st8" d="M446.5,212.4L744.2,40.6l0,155.1L446.5,367.5L446.5,212.4z"/>
<path class="st4" d="M647.4,152.7L501,237.2l0,13.6l146.3-84.5L647.4,152.7z"/>
<path class="st4" d="M647.4,178.8L472.5,279.7l0,13.6l174.9-100.9L647.4,178.8z"/>
<path class="st7" d="M687.8,122c0-1.7,1.2-3.7,2.6-4.5l11.5-6.6c1.4-0.8,2.6-0.2,2.6,1.5l0,11.4c0,2.3,2.5,3.8,4.5,2.6l7.1-4.1
	c1.4-0.8,2.6-0.2,2.6,1.5l0,17.1c0,1.7-1.2,3.7-2.6,4.5l-10.1,5.8c-0.9,0.5-1.5,1.5-1.5,2.6l0,14.9c0,1.7-1.2,3.7-2.6,4.5l-11.5,6.6
	c-1.4,0.8-2.6,0.2-2.6-1.5l0-11.4c0-2.3-2.5-3.8-4.5-2.6l-7.1,4.1c-1.4,0.8-2.6,0.2-2.6-1.5l0-17.1c0-1.7,1.2-3.7,2.6-4.5l10.1-5.8
	c0.9-0.5,1.5-1.5,1.5-2.6L687.8,122z"/>
</svg>
