<?xml version="1.0" encoding="utf-8"?>
<!-- Generator: Adobe Illustrator 22.1.0, SVG Export Plug-In . SVG Version: 6.00 Build 0)  -->
<svg version="1.1" id="illustration" xmlns="http://www.w3.org/2000/svg" xmlns:xlink="http://www.w3.org/1999/xlink" x="0px"
	 y="0px" viewBox="0 0 773 811" style="enable-background:new 0 0 773 811;" xml:space="preserve">
<style type="text/css">
	.st0{opacity:7.000000e-02;fill:url(#SVGID_1_);enable-background:new    ;}
	.st1{opacity:0.4;fill:url(#SVGID_2_);enable-background:new    ;}
	.st2{opacity:0.3;fill:url(#SVGID_3_);enable-background:new    ;}
	.st3{opacity:0.15;fill:#FFFFFF;enable-background:new    ;}
	.st4{fill:#F2C94C;}
	.st5{opacity:0.3;fill:url(#SVGID_4_);enable-background:new    ;}
	.st6{fill:#F2994A;}
	.st7{opacity:0.3;fill:url(#SVGID_5_);enable-background:new    ;}
	.st8{opacity:0.2;fill:url(#SVGID_6_);enable-background:new    ;}
	.st9{opacity:0.2;fill:url(#SVGID_7_);enable-background:new    ;}
</style>
<linearGradient id="SVGID_1_" gradientUnits="userSpaceOnUse" x1="734.9926" y1="176.764" x2="385.2256" y2="318.7483" gradientTransform="matrix(1 0 0 1 0 20)">
	<stop  offset="0" style="stop-color:#FFFFFF"/>
	<stop  offset="1" style="stop-color:#FFFFFF;stop-opacity:0"/>
</linearGradient>
<path class="st0" d="M512.5,598.5c0,0,126-199,126-335.9c0-96.7-56.4-207.5-126-247.6s-126,5.8-126,102.5
	C386.5,253.2,512.5,598.5,512.5,598.5z M512.5,112.2c30.7,17.7,55.6,66.4,55.6,108.9s-24.9,62.5-55.6,44.8s-55.6-66.4-55.6-108.9
	C456.9,114.6,481.8,94.5,512.5,112.2z"/>
<linearGradient id="SVGID_2_" gradientUnits="userSpaceOnUse" x1="694.9891" y1="206.7654" x2="345.222" y2="348.7498" gradientTransform="matrix(1 0 0 1 0 20)">
	<stop  offset="0" style="stop-color:#FFFFFF"/>
	<stop  offset="1" style="stop-color:#FFFFFF;stop-opacity:0"/>
</linearGradient>
<path class="st1" d="M472.5,628.5c0,0,126-199,126-335.9c0-96.7-56.4-207.5-126-247.6s-126,5.8-126,102.5
	C346.5,283.2,472.5,628.5,472.5,628.5z M472.5,142.2c30.7,17.7,55.6,66.4,55.6,108.9s-24.9,62.5-55.6,44.8s-55.6-66.4-55.6-108.9
	S441.8,124.5,472.5,142.2z"/>
<linearGradient id="SVGID_3_" gradientUnits="userSpaceOnUse" x1="422.9101" y1="363.3303" x2="257.0002" y2="650.7693" gradientTransform="matrix(1 0 0 1 0 20)">
	<stop  offset="0" style="stop-color:#FFFFFF"/>
	<stop  offset="1" style="stop-color:#FFFFFF;stop-opacity:0"/>
</linearGradient>
<path class="st2" d="M216,352.8l186.9,107.9V807L216,699.1V352.8z"/>
<path class="st3" d="M245.7,573L357,637.3v13.6l-111.4-64.3L245.7,573z"/>
<path class="st3" d="M257.2,606.7l88.3,50.9v13.6l-88.3-50.9V606.7z"/>
<path class="st4" d="M287.4,668.3l-130-75.1v38.7l130,75.1V668.3z"/>
<path class="st3" d="M308,466.5L269.1,444v-13.1l38.9,22.5c3.2,1.8,7.8,5.6,11.7,11.3c4.2,6.1,7.3,13.8,7.3,22.2
	c0,9.2-2.4,14.5-6.8,16c-4.2,1.4-9.2-1-12.2-2.8l-16-9.2l-0.1-0.1c-1.4-0.8-3.6-1.6-5.3-1.1c-1.4,0.4-3,1.8-3,7
	c0,5.1,1.6,8.3,2.9,10.2c1.7,2.3,3.8,4,5.2,4.7l0.2,0.1l49,28.3v13.1L292.3,525c-3.3-1.7-8.2-5.4-12.3-11.3
	c-4.6-6.4-7.7-14.5-7.7-23.6c0-9,3.1-13.6,7.6-14.9c4.2-1.2,9,0.5,12.3,2.6L308,487c2.3,1.3,4,1.9,5.2,1.5c0.9-0.3,2.5-1.5,2.5-8.2
	c0-4.3-1.4-7.1-2.7-9C311.4,469,309.3,467.3,308,466.5z"/>
<path class="st4" d="M282.9,447.7c0,12.9-7.6,19-16.9,13.7c-9.3-5.4-16.9-20.2-16.9-33.2c0-12.9,7.6-19,16.9-13.7
	C275.4,419.9,282.9,434.8,282.9,447.7z"/>
<path class="st4" d="M365.9,561.7c0,12.9-7.6,19-16.9,13.7c-9.3-5.4-16.9-20.2-16.9-33.2c0-12.9,7.6-19,16.9-13.7
	C358.4,533.9,365.9,548.8,365.9,561.7z"/>
<linearGradient id="SVGID_4_" gradientUnits="userSpaceOnUse" x1="264.5647" y1="126.9756" x2="110.9138" y2="247.2797" gradientTransform="matrix(1 0 0 1 0 20)">
	<stop  offset="0" style="stop-color:#FFFFFF"/>
	<stop  offset="1" style="stop-color:#FFFFFF;stop-opacity:0"/>
</linearGradient>
<path class="st5" d="M329.4,209.1L31.9,37.3L32,192.4L303.3,349l26.3,38.9L329.4,209.1z"/>
<path class="st6" d="M0.2,97.8V55.7l112.3,64.8v42.1L0.2,97.8z"/>
<path class="st3" d="M253,202.7L187.8,165v13.6l65.2,37.6V202.7z"/>
<path class="st3" d="M253,229.9l-125.7-72.5V171L253,243.6V229.9z"/>
<path class="st3" d="M253,257.2l-152.3-87.9v13.6l152.3,88V257.2z"/>
<path class="st6" d="M269,226.1c0,12.8,7.6,27.5,16.9,32.9s16.9-0.6,16.9-13.4c0-12.8-7.6-27.5-16.9-32.9
	C276.6,207.4,269,213.4,269,226.1z"/>
<linearGradient id="SVGID_5_" gradientUnits="userSpaceOnUse" x1="577.0033" y1="469.1004" x2="615.4744" y2="781.1315" gradientTransform="matrix(1 0 0 1 0 20)">
	<stop  offset="0" style="stop-color:#FFFFFF"/>
	<stop  offset="1" style="stop-color:#FFFFFF;stop-opacity:0"/>
</linearGradient>
<path class="st7" d="M449.1,484.1l297.6,171.8l0.1,155.1L475.5,654.3l-26.2,8.6L449.1,484.1z"/>
<path class="st6" d="M660.1,683.2v-42.1l112.3,64.8V748L660.1,683.2z"/>
<path class="st3" d="M525.7,566l65.2,37.6v13.6l-65.2-37.6V566z"/>
<path class="st3" d="M525.7,593.3l117.7,67.9v13.6l-117.7-67.9V593.3z"/>
<path class="st3" d="M525.7,620.5L678,708.4V722l-152.3-87.9V620.5z"/>
<path class="st6" d="M509.6,570.9c0,12.8-7.6,18.8-16.9,13.4c-9.3-5.4-16.9-20.1-16.9-32.9c0-12.8,7.6-18.8,16.9-13.4
	C502.1,543.4,509.6,558.2,509.6,570.9z"/>
<linearGradient id="SVGID_6_" gradientUnits="userSpaceOnUse" x1="137.0073" y1="377.0973" x2="87.1696" y2="420.2483" gradientTransform="matrix(1 0 0 1 0 20)">
	<stop  offset="0" style="stop-color:#FFFFFF"/>
	<stop  offset="1" style="stop-color:#FFFFFF;stop-opacity:0"/>
</linearGradient>
<path class="st8" d="M122.8,461c-67.6-86.8-18.7-118,0-67.2C141.5,364.7,190.4,452.3,122.8,461z"/>
<linearGradient id="SVGID_7_" gradientUnits="userSpaceOnUse" x1="719.7514" y1="496.9225" x2="623.9644" y2="432.6096" gradientTransform="matrix(1 0 0 1 0 20)">
	<stop  offset="0" style="stop-color:#FFFFFF"/>
	<stop  offset="1" style="stop-color:#FFFFFF;stop-opacity:0"/>
</linearGradient>
<path class="st9" d="M735.2,523.1l-35.5,28.7c-3.8,3.1-10.7-0.1-15.2-7.2c-4.6-7.1-5.2-15.3-1.4-18.4l14.9-12l-56.8-32.8
	c-6-3.5-10.8-11.8-10.8-18.7c0-6.9,4.8-9.7,10.8-6.3l56.8,32.8l-15-29.3c-3.8-7.5-3.2-15,1.4-16.8c4.6-1.8,11.4,2.9,15.2,10.4
	L735.2,523.1z"/>
</svg>
