<?xml version="1.0" encoding="utf-8"?>
<!-- Generator: Adobe Illustrator 22.1.0, SVG Export Plug-In . SVG Version: 6.00 Build 0)  -->
<svg version="1.1" id="Слой_1" xmlns="http://www.w3.org/2000/svg" xmlns:xlink="http://www.w3.org/1999/xlink" x="0px" y="0px"
	 viewBox="0 0 756 934" style="enable-background:new 0 0 756 934;" xml:space="preserve">
<style type="text/css">
	.st0{opacity:0.1;fill:url(#SVGID_1_);enable-background:new    ;}
	.st1{opacity:0.2;fill:url(#SVGID_2_);enable-background:new    ;}
	.st2{fill:#EA9343;}
	.st3{fill:#F2C94C;}
	.st4{opacity:0.15;fill:url(#SVGID_3_);enable-background:new    ;}
	.st5{opacity:7.000000e-02;fill:url(#SVGID_4_);enable-background:new    ;}
	.st6{opacity:0.15;fill:#FFFFFF;enable-background:new    ;}
	.st7{opacity:0.15;fill:url(#SVGID_5_);enable-background:new    ;}
	.st8{opacity:7.000000e-02;fill:url(#SVGID_6_);enable-background:new    ;}
	.st9{opacity:0.2;fill:#FFFFFF;enable-background:new    ;}
	.st10{opacity:0.3;fill:url(#SVGID_7_);enable-background:new    ;}
</style>
<linearGradient id="SVGID_1_" gradientUnits="userSpaceOnUse" x1="212.3996" y1="601.1008" x2="468.9066" y2="345.0998" gradientTransform="matrix(1 0 0 -1 0 934)">
	<stop  offset="0" style="stop-color:#FFFFFF"/>
	<stop  offset="1" style="stop-color:#FFFFFF;stop-opacity:0"/>
</linearGradient>
<path class="st0" d="M690.3,0.1L2.5,397.1l0.1,536l687.8-397L690.3,0.1z"/>
<linearGradient id="SVGID_2_" gradientUnits="userSpaceOnUse" x1="519.8596" y1="992.3756" x2="259.0386" y2="550.5669" gradientTransform="matrix(1 0 0 -1 0 934)">
	<stop  offset="0" style="stop-color:#FFFFFF"/>
	<stop  offset="1" style="stop-color:#FFFFFF;stop-opacity:0"/>
</linearGradient>
<path class="st1" d="M690.3,0.1L3.4,396.6l0,72.7L690.3,72.8L690.3,0.1z"/>
<path class="st2" d="M755.2,242.9L577.4,345.5l0,49.3l177.8-102.6L755.2,242.9z"/>
<path class="st3" d="M265,517.8L87.3,620.4l0,49.3L265,567.1L265,517.8z"/>
<linearGradient id="SVGID_3_" gradientUnits="userSpaceOnUse" x1="175.8657" y1="231.0168" x2="235.2507" y2="128.1309" gradientTransform="matrix(1 0 0 -1 0 934)">
	<stop  offset="0" style="stop-color:#FFFFFF"/>
	<stop  offset="1" style="stop-color:#FFFFFF;stop-opacity:0"/>
</linearGradient>
<path class="st4" d="M381.6,584.2l-347,200.3l0,148.9l347-200.3L381.6,584.2z"/>
<linearGradient id="SVGID_4_" gradientUnits="userSpaceOnUse" x1="142.2371" y1="247.8289" x2="201.6231" y2="144.9439" gradientTransform="matrix(1 0 0 -1 0 934)">
	<stop  offset="0" style="stop-color:#FFFFFF"/>
	<stop  offset="1" style="stop-color:#FFFFFF;stop-opacity:0"/>
</linearGradient>
<path class="st5" d="M348,567.4L1,767.7l0,148.9l347-200.3L348,567.4z"/>
<path class="st6" d="M355.9,629.3l-52.3,30.2l0,49.3l52.3-30.2L355.9,629.3z"/>
<path class="st6" d="M291.5,668.2l-52.3,30.2l0,49.3l52.3-30.2L291.5,668.2z"/>
<path class="st6" d="M227.1,704.7l-52.3,30.2l0,49.3l52.3-30.2L227.1,704.7z"/>
<path class="st6" d="M162.7,743.6l-52.3,30.2l0,49.3l52.3-30.2L162.7,743.6z"/>
<path class="st6" d="M643.9,201.6L249.3,429.4l0,16.8l394.6-227.8L643.9,201.6z"/>
<path class="st6" d="M643.9,235.5L303.4,432l0,16.8l340.5-196.5L643.9,235.5z"/>
<path class="st6" d="M643.9,269L354.2,436.2l0,16.8l289.7-167.2L643.9,269z"/>
<linearGradient id="SVGID_5_" gradientUnits="userSpaceOnUse" x1="562.2296" y1="469.7364" x2="621.6155" y2="366.8514" gradientTransform="matrix(1 0 0 -1 0 934)">
	<stop  offset="0" style="stop-color:#FFFFFF"/>
	<stop  offset="1" style="stop-color:#FFFFFF;stop-opacity:0"/>
</linearGradient>
<path class="st7" d="M738.9,362.3L450,529l0,148.9l288.9-166.7L738.9,362.3z"/>
<linearGradient id="SVGID_6_" gradientUnits="userSpaceOnUse" x1="528.6019" y1="486.5507" x2="587.9879" y2="383.6657" gradientTransform="matrix(1 0 0 -1 0 934)">
	<stop  offset="0" style="stop-color:#FFFFFF"/>
	<stop  offset="1" style="stop-color:#FFFFFF;stop-opacity:0"/>
</linearGradient>
<path class="st8" d="M705.3,345.5L416.4,512.2l0,148.9l288.9-166.7L705.3,345.5z"/>
<path class="st6" d="M719.2,409.5L489.6,542l0,16.8l229.5-132.5L719.2,409.5z"/>
<path class="st6" d="M719.2,443.4L535.4,549.5l0,16.8l183.8-106.1L719.2,443.4z"/>
<path class="st9" d="M615.5,79.6c0,10.9,6.4,16,14.2,11.5c7.8-4.5,14.2-17,14.2-27.8c0-10.9-6.4-16-14.2-11.5
	C621.8,56.3,615.5,68.8,615.5,79.6z"/>
<linearGradient id="SVGID_7_" gradientUnits="userSpaceOnUse" x1="560.7383" y1="293.5933" x2="703.2214" y2="93.8423" gradientTransform="matrix(1 0 0 -1 0 934)">
	<stop  offset="0" style="stop-color:#FFFFFF"/>
	<stop  offset="1" style="stop-color:#FFFFFF;stop-opacity:0"/>
</linearGradient>
<path class="st10" d="M634.2,652.1c0,19.8,4.4,32.5,13.2,38c8.8,5.5,20.6,4,35.4-4.6c14.8-8.6,26.6-20.6,35.4-36.3
	c8.8-15.6,13.2-33.4,13.2-53.2c0-19.8-4.4-32.5-13.2-38c-8.8-5.5-20.6-4-35.4,4.6c-14.8,8.5-26.6,20.6-35.4,36.3
	C638.6,614.5,634.2,632.2,634.2,652.1z M665.2,634.2c0-10.8,1.6-19.5,4.9-26.3c3.3-6.8,7.5-11.6,12.6-14.6c5.3-3.1,9.6-3.1,12.9-0.2
	c3.1,3.1,4.7,10,4.7,20.7c0,10.8-1.6,19.6-4.7,26.4c-3.3,6.8-7.6,11.7-12.9,14.7c-5.1,3-9.3,3-12.6,0
	C666.9,651.9,665.2,644.9,665.2,634.2z M580.7,626.6l-38.1,22l107.3,157.6l38.1-22L580.7,626.6z M498.7,837c0,19.8,4.4,32.5,13.2,38
	c8.8,5.5,20.6,4,35.4-4.6c14.8-8.5,26.6-20.6,35.4-36.3c8.8-15.6,13.2-33.4,13.2-53.2c0-19.8-4.4-32.5-13.2-38
	c-8.8-5.5-20.6-4-35.4,4.6c-14.8,8.5-26.6,20.6-35.4,36.3C503.1,799.4,498.7,817.2,498.7,837z M529.7,819.1
	c0-10.8,1.6-19.5,4.9-26.3c3.3-6.8,7.5-11.6,12.6-14.6c5.3-3.1,9.6-3.1,12.9-0.2c3.1,3.1,4.7,10,4.7,20.7c0,10.8-1.6,19.6-4.7,26.4
	c-3.3,6.8-7.6,11.7-12.9,14.7c-5.1,3-9.3,3-12.6,0C531.4,836.9,529.7,829.9,529.7,819.1z"/>
</svg>
