<?xml version="1.0" encoding="utf-8"?>
<!-- Generator: Adobe Illustrator 22.1.0, SVG Export Plug-In . SVG Version: 6.00 Build 0)  -->
<svg version="1.1" id="illustration" xmlns="http://www.w3.org/2000/svg" xmlns:xlink="http://www.w3.org/1999/xlink" x="0px"
	 y="0px" viewBox="0 0 764 690" style="enable-background:new 0 0 764 690;" xml:space="preserve">
<style type="text/css">
	.st0{opacity:7.000000e-02;fill:url(#SVGID_1_);enable-background:new    ;}
	.st1{opacity:0.4;fill:url(#SVGID_2_);}
	.st2{opacity:0.4;fill:url(#SVGID_3_);}
	.st3{opacity:0.3;fill:url(#SVGID_4_);enable-background:new    ;}
	.st4{fill:#F2994A;}
	.st5{opacity:0.15;fill:#FFFFFF;enable-background:new    ;}
	.st6{opacity:0.3;fill:url(#SVGID_5_);enable-background:new    ;}
	.st7{fill:#F2C94C;}
	.st8{opacity:0.2;fill:url(#SVGID_6_);enable-background:new    ;}
	.st9{opacity:0.2;fill:url(#SVGID_7_);enable-background:new    ;}
	.st10{opacity:0.2;fill:url(#SVGID_8_);enable-background:new    ;}
	.st11{opacity:0.2;fill:url(#SVGID_9_);enable-background:new    ;}
</style>
<linearGradient id="SVGID_1_" gradientUnits="userSpaceOnUse" x1="195.223" y1="309.0737" x2="458.7309" y2="416.3531" gradientTransform="matrix(1 0 0 1 0 -100)">
	<stop  offset="0" style="stop-color:#FFFFFF"/>
	<stop  offset="1" style="stop-color:#FFFFFF;stop-opacity:0"/>
</linearGradient>
<path class="st0" d="M256.8,105.6c-2.1,1.2-4,4.1-4.3,6.7l-46.7,386.3c-0.4,3.3,1.6,4.8,4.3,3.3l254.2-146.7
	c2.6-1.5,4.7-5.4,4.3-8.2L421.8,14.6c-0.3-2.3-2.1-3-4.3-1.8L256.8,105.6z"/>
<linearGradient id="SVGID_2_" gradientUnits="userSpaceOnUse" x1="350.3042" y1="142.9916" x2="520.9962" y2="297.6567" gradientTransform="matrix(1 0 0 1 0 -100)">
	<stop  offset="0" style="stop-color:#FFFFFF"/>
	<stop  offset="1" style="stop-color:#FFFFFF;stop-opacity:0"/>
</linearGradient>
<path class="st1" d="M322.5,111.1c0-40.6,23.8-87.3,53.1-104.3c29.3-16.9,53.1,2.3,53.1,42.9l-11.5,6.6v-0.1
	c0-31.9-18.7-47-41.7-33.7s-41.7,50-41.7,81.9v0.1L322.5,111.1z"/>
<linearGradient id="SVGID_3_" gradientUnits="userSpaceOnUse" x1="233.9969" y1="271.3511" x2="404.6889" y2="426.0162" gradientTransform="matrix(1 0 0 1 0 -100)">
	<stop  offset="0" style="stop-color:#FFFFFF"/>
	<stop  offset="1" style="stop-color:#FFFFFF;stop-opacity:0"/>
</linearGradient>
<path class="st2" d="M291.1,133.6c0.3-2.6,2.1-5.5,4.3-6.7L456,34.1c2.1-1.2,4-0.5,4.3,1.8l46.8,332.3c0.4,2.8-1.6,6.7-4.3,8.2
	L248.7,523.1c-2.6,1.5-4.7,0-4.3-3.3L291.1,133.6z"/>
<linearGradient id="SVGID_4_" gradientUnits="userSpaceOnUse" x1="499.5596" y1="222.2551" x2="653.2096" y2="342.5591" gradientTransform="matrix(1 0 0 1 0 -100)">
	<stop  offset="0" style="stop-color:#FFFFFF"/>
	<stop  offset="1" style="stop-color:#FFFFFF;stop-opacity:0"/>
</linearGradient>
<path class="st3" d="M434.7,184.4L732.2,12.6l-0.1,155.1L460.9,324.3l-26.3,38.9L434.7,184.4z"/>
<path class="st4" d="M763.9,73.1V31L651.6,95.8v42.1L763.9,73.1z"/>
<path class="st5" d="M511.2,178l65.2-37.6V154l-65.2,37.6V178z"/>
<path class="st5" d="M511.2,205.2l125.7-72.5v13.6l-125.7,72.5V205.2z"/>
<path class="st5" d="M511.1,232.5l152.3-87.9v13.6l-152.3,87.9L511.1,232.5z"/>
<path class="st4" d="M495.1,201.4c0,12.8-7.6,27.5-16.9,32.9s-16.9-0.6-16.9-13.4c0-12.8,7.6-27.5,16.9-32.9
	C487.6,182.6,495.1,188.6,495.1,201.4z"/>
<linearGradient id="SVGID_5_" gradientUnits="userSpaceOnUse" x1="272.0916" y1="467.2909" x2="233.6206" y2="779.322" gradientTransform="matrix(1 0 0 1 0 -100)">
	<stop  offset="0" style="stop-color:#FFFFFF"/>
	<stop  offset="1" style="stop-color:#FFFFFF;stop-opacity:0"/>
</linearGradient>
<path class="st6" d="M400,362.3L102.4,534l-0.1,155.1l271.3-156.6l26.2,8.6L400,362.3z"/>
<path class="st7" d="M189,561.4v-42.1L76.7,584.1v42.1L189,561.4z"/>
<path class="st5" d="M323.5,444.2l-65.2,37.6v13.6l65.2-37.6V444.2z"/>
<path class="st5" d="M323.4,471.5l-117.7,67.9V553l117.7-67.9V471.5z"/>
<path class="st5" d="M323.4,498.7l-152.3,87.9v13.6l152.3-87.9V498.7z"/>
<path class="st7" d="M339.5,449.1c0,12.8,7.6,18.8,16.9,13.4s16.9-20.1,16.9-32.9s-7.6-18.8-16.9-13.4S339.5,436.4,339.5,449.1z"/>
<linearGradient id="SVGID_6_" gradientUnits="userSpaceOnUse" x1="633.3569" y1="467.0927" x2="586.8431" y2="386.5073" gradientTransform="matrix(1 0 0 1 0 -100)">
	<stop  offset="0" style="stop-color:#FFFFFF;stop-opacity:0"/>
	<stop  offset="1" style="stop-color:#FFFFFF"/>
</linearGradient>
<path class="st8" d="M712,321.7L508.2,439.3V331.9L712,214.3V321.7z"/>
<path class="st4" d="M549.6,341.3c0-8.9-5.2-13-11.6-9.4c-6.4,3.7-11.6,13.9-11.6,22.7c0,8.9,5.2,13,11.6,9.4
	C544.4,360.3,549.6,350.2,549.6,341.3z"/>
<path class="st5" d="M560.1,369.8l131-75.6v-13.6l-131,75.6V369.8z"/>
<path class="st5" d="M560.4,341.9l59.6-34.4v-13.6l-59.6,34.4V341.9z"/>
<linearGradient id="SVGID_7_" gradientUnits="userSpaceOnUse" x1="78.8426" y1="519.507" x2="125.3574" y2="600.093" gradientTransform="matrix(1 0 0 1 0 -100)">
	<stop  offset="0" style="stop-color:#FFFFFF"/>
	<stop  offset="1" style="stop-color:#FFFFFF;stop-opacity:0"/>
</linearGradient>
<path class="st9" d="M0.2,464.9L204,347.3v107.4L0.2,572.3V464.9z"/>
<path class="st5" d="M152.1,403.8l-50,28.9v13.6l50-28.9V403.8z"/>
<path class="st5" d="M151.8,430.7l-107.6,62v13.6l107.5-62.1L151.8,430.7z"/>
<path class="st7" d="M162.6,405.7c0,8.9,5.2,13,11.6,9.4c6.4-3.7,11.6-13.9,11.6-22.7c0-8.9-5.2-13-11.6-9.4
	S162.6,396.8,162.6,405.7z"/>
<linearGradient id="SVGID_8_" gradientUnits="userSpaceOnUse" x1="505.9962" y1="623.4008" x2="555.8342" y2="666.5508" gradientTransform="matrix(1 0 0 1 0 -100)">
	<stop  offset="0" style="stop-color:#FFFFFF"/>
	<stop  offset="1" style="stop-color:#FFFFFF;stop-opacity:0"/>
</linearGradient>
<path class="st10" d="M520.2,587.3c67.6-86.8,18.7-118,0-67.2C501.5,491,452.6,578.6,520.2,587.3z"/>
<linearGradient id="SVGID_9_" gradientUnits="userSpaceOnUse" x1="122.2155" y1="322.3994" x2="174.5726" y2="363.7195" gradientTransform="matrix(1 0 0 1 0 -100)">
	<stop  offset="0" style="stop-color:#FFFFFF"/>
	<stop  offset="1" style="stop-color:#FFFFFF;stop-opacity:0"/>
</linearGradient>
<path class="st11" d="M143.1,183.4c-6,3.4-10.8,11.8-10.8,18.7v30.5l-20.2,11.6c-6,3.4-10.8,11.8-10.8,18.8c0,6.9,4.8,9.7,10.8,6.3
	l20.2-11.6v30.5c0,6.9,4.8,9.7,10.8,6.3c6-3.4,10.8-11.8,10.8-18.8v-30.5l20.2-11.6c6-3.4,10.8-11.8,10.8-18.7s-4.8-9.7-10.8-6.3
	L154,220.1v-30.5C154,182.7,149.1,179.9,143.1,183.4z"/>
</svg>
